<svg width="485" height="74" viewBox="0 0 485 74" fill="none" xmlns="http://www.w3.org/2000/svg">
<g clip-path="url(#clip0_1_297)">
<path d="M4.07002 4.07343C-1.35656 9.50462 -1.42439 64.4276 4.07002 69.9266C9.49659 75.3578 64.3728 75.4257 69.8672 69.9266C75.3616 64.4276 75.2938 9.50462 69.8672 4.07343C64.5763 -1.28987 9.56442 -1.42565 4.07002 4.07343ZM61.7274 45.0789H45.1085V61.7799H28.6931V45.0789H12.0064V28.6496H28.6931V11.9487H45.1085V28.6496H61.7274V45.0789Z" fill="#4DA32F"/>
<path d="M45.1084 11.9486H28.6931V28.6495H12.0063V45.0789H28.6931V61.7798H45.1084V45.0789H61.7273V28.6495H45.1084V11.9486Z" fill="white"/>
<path d="M485 55.4661H477.878C475.775 55.4661 474.283 55.2624 473.401 54.5156C472.18 53.4973 472.315 51.1211 472.18 47.4551V6.58533H462.276C458.817 12.7633 453.255 13.7138 446.336 14.0532V20.8422C450.134 21.1138 454.272 21.589 455.764 22.3358C455.764 22.3358 457.46 22.6073 457.664 25.5945C458.545 38.5615 458.41 41.8881 458.003 48.8807C457.867 51.6642 457.46 53.8367 456.51 54.5835C455.357 55.534 453.662 55.6018 451.966 55.6018H445.386V65.4459H485V55.4661Z" fill="#4DA32F"/>
<path d="M180.773 18.8734H170.394V35.9817H180.773C186.064 35.9817 190.88 34.4881 190.88 27.6312C190.88 21.1817 186.064 18.8734 180.773 18.8734ZM184.436 46.5725H170.394V65.378H156.625V9.09729H184.436C194.678 9.09729 202.954 17.1083 202.954 27.3597C202.954 37.6111 195.899 46.5725 184.436 46.5725Z" fill="#1E3866"/>
<path d="M239.176 54.3798C229.069 54.3798 221.743 47.1835 221.743 37.2715C221.743 27.3596 229.069 20.1633 239.176 20.1633C249.351 20.1633 256.677 27.3596 256.677 37.2715C256.677 47.1835 249.351 54.3798 239.176 54.3798ZM239.176 8.48621C222.083 8.48621 209.194 20.8422 209.194 37.2715C209.194 53.7009 222.015 66.0569 239.041 66.0569C258.848 66.0569 269.226 51.5963 269.226 37.2715C269.226 20.6385 256.541 8.48621 239.176 8.48621Z" fill="#1E3866"/>
<path d="M271.532 9.16516V20.7064H289.304V65.378H301.582V20.7064H319.286V9.16516H271.532Z" fill="#1E3866"/>
<path d="M117.689 28.8533C119.452 32.8588 124.133 43.3138 124.133 43.3138H111.652C111.652 43.3138 115.993 32.8588 117.689 28.8533ZM134.104 65.378H146.992L121.894 9.09729H113.483L89.335 65.378H102.223C102.223 65.378 105.75 58.0459 107.65 53.6331H128.474C130.509 58.0459 134.104 65.378 134.104 65.378Z" fill="#1E3866"/>
<path d="M342.688 42.8386H366.158V31.2294H342.688V20.7064H366.904V9.16516H330.411V65.378H367.583V53.8367H342.688V42.8386Z" fill="#1E3866"/>
<path d="M400.888 35.778C403.669 32.723 425.376 9.09729 425.376 9.09729H409.503C409.503 9.09729 396.954 22.7432 391.459 28.7175V9.16518H379.182V65.378H391.459V43.3817C397.361 49.0844 414.115 65.378 414.115 65.378H431.345C431.345 65.378 403.873 38.7652 400.888 35.778Z" fill="#1E3866"/>
</g>
<defs>
<clipPath id="clip0_1_297">
<rect width="485" height="74" fill="white"/>
</clipPath>
</defs>
</svg>
