<svg width="222" height="225" viewBox="0 0 222 225" fill="none" xmlns="http://www.w3.org/2000/svg">
<path opacity="0.15" d="M27.1003 223.264L27.3176 223.613L27.7024 223.467L84.1183 202.052C90.5695 199.975 94.8922 196.259 96.9958 190.882L96.9983 190.876C99.1147 185.231 97.7896 178.828 93.212 171.73C84.6314 158.179 79.3359 144.757 77.3086 131.465C75.2757 118.135 75.1647 105.836 76.9675 94.563C79.0003 83.0428 82.16 72.8906 86.4408 64.1011C90.9588 55.0634 95.352 48.0824 99.6162 43.1404C101.02 41.7329 102.181 39.9837 103.106 37.903C104.034 35.8134 104.505 33.7128 104.508 31.6049C104.739 29.2505 104.266 27.0102 103.097 24.8965C102.131 22.738 100.229 20.8631 97.4654 19.2501C97.4642 19.2495 97.4631 19.2488 97.4619 19.2481L68.235 1.57216L67.9388 1.39302L67.6668 1.60721C49.4952 15.9205 34.9499 32.0577 24.0382 50.0204L24.0359 50.0244C13.3555 67.9804 6.30793 86.7374 2.89763 106.294C-0.512567 125.623 -0.284564 145.291 3.57901 165.295L3.5801 165.3C7.67196 185.309 15.5139 204.631 27.1003 223.264ZM144.035 223.264L144.252 223.613L144.637 223.467L201.053 202.052C207.504 199.975 211.827 196.259 213.931 190.882L213.933 190.876C216.05 185.231 214.724 178.828 210.147 171.73C201.566 158.179 196.271 144.757 194.243 131.465C192.211 118.135 192.1 105.836 193.902 94.5629C195.935 83.043 199.095 72.8911 203.375 64.1017C207.893 55.0637 212.287 48.0825 216.551 43.1404C217.955 41.7329 219.116 39.9837 220.041 37.903C220.969 35.8134 221.44 33.7128 221.443 31.6048C221.674 29.2504 221.201 27.0102 220.031 24.8965C219.066 22.7379 217.164 20.8631 214.4 19.2501C214.399 19.2494 214.398 19.2488 214.397 19.2481L185.17 1.57216L184.874 1.39302L184.602 1.60721C166.43 15.9205 151.885 32.0577 140.973 50.0204L140.971 50.0244C130.29 67.9805 123.243 86.7377 119.832 106.294C116.422 125.623 116.65 145.291 120.514 165.295L120.515 165.3C124.607 185.309 132.449 204.631 144.035 223.264Z" fill="#B3B2B3" stroke="black"/>
</svg>
