<svg width="20" height="15" viewBox="0 0 20 15" fill="none" xmlns="http://www.w3.org/2000/svg">
<path fill-rule="evenodd" clip-rule="evenodd" d="M3.32471 14.1018V12.2471C3.39794 12.1694 3.44559 12.0635 3.44559 11.9479C3.44559 10.9209 4.28118 10.0844 5.30912 10.0844C6.33618 10.0844 7.17176 10.9209 7.17176 11.9479C7.17176 12.1915 7.36853 12.3891 7.61294 12.3891C7.62794 12.3891 7.64118 12.3821 7.65529 12.3803C7.67029 12.3821 7.68265 12.3891 7.69765 12.3891C7.94118 12.3891 8.13882 12.1915 8.13882 11.9479C8.13882 10.9209 8.97441 10.0844 10.0015 10.0844C11.0285 10.0844 11.865 10.9209 11.865 11.9479C11.865 12.1915 12.0618 12.3891 12.3062 12.3891C12.3212 12.3891 12.3335 12.3821 12.3485 12.3803C12.3635 12.3821 12.3759 12.3891 12.3909 12.3891C12.6353 12.3891 12.8321 12.1915 12.8321 11.9479C12.8321 10.9209 13.6676 10.0844 14.6947 10.0844C15.7218 10.0844 16.5582 10.9209 16.5582 11.9479C16.5582 12.0282 16.5856 12.1006 16.6235 12.1659V14.1018H3.32471ZM3.70588 6.81971H16.2424C16.4524 6.81971 16.6235 6.99088 16.6235 7.20176V9.99794C16.1276 9.50647 15.4465 9.20206 14.6947 9.20206C13.6959 9.20206 12.8285 9.74471 12.3485 10.5441C11.8685 9.74471 11.0012 9.20206 10.0015 9.20206C9.00265 9.20206 8.13529 9.74471 7.65529 10.5441C7.17529 9.74471 6.30794 9.20206 5.30912 9.20206C4.52735 9.20206 3.825 9.53382 3.32471 10.0597V7.20176C3.32471 6.99088 3.49588 6.81971 3.70588 6.81971ZM19.5071 14.1018H17.5059V7.20176C17.5059 6.50471 16.9394 5.93735 16.2424 5.93735H12.9203V4.18412C12.9203 4.00676 12.8135 3.85588 12.6626 3.78618C13.095 3.30529 13.3712 2.68235 13.3712 1.98529C13.3712 1.19912 13.0324 0.495882 12.4985 0C11.9647 0.495882 11.6259 1.19912 11.6259 1.98529C11.6259 2.67706 11.8985 3.29471 12.3247 3.77382C12.1571 3.83647 12.0379 3.99441 12.0379 4.18412V5.93735H7.87147V4.18412C7.87147 4.00676 7.76471 3.85588 7.61382 3.78529C8.04618 3.30529 8.32235 2.68235 8.32235 1.98529C8.32235 1.19912 7.98353 0.495882 7.44971 0C6.91588 0.495882 6.57794 1.19912 6.57794 1.98529C6.57794 2.67706 6.84971 3.29471 7.27588 3.77382C7.10912 3.83647 6.98912 3.99529 6.98912 4.18412V5.93735H3.70588C3.00971 5.93735 2.44235 6.50471 2.44235 7.20176V14.1018H0.441176C0.197647 14.1018 0 14.2994 0 14.5429C0 14.7865 0.197647 14.9841 0.441176 14.9841H2.88353H17.0647H19.5071C19.7515 14.9841 19.9482 14.7865 19.9482 14.5429C19.9482 14.2994 19.7515 14.1018 19.5071 14.1018Z" fill="#00DAC7"/>
</svg>
