<svg width="92" height="20" viewBox="0 0 92 20" fill="none" xmlns="http://www.w3.org/2000/svg">
<rect width="92" height="20" fill="#E5E5E5"/>
<g clip-path="url(#clip0_0_1)">
<rect width="1440" height="3621" transform="translate(-465 -3546)" fill="white"/>
<rect x="-465" y="-53" width="1440" height="128" fill="#F9F9F9"/>
<path fill-rule="evenodd" clip-rule="evenodd" d="M30.912 19.9207C28.8055 19.5097 26.9425 18.1347 25.8778 16.2144C25.6193 15.7511 25.3988 15.1534 25.201 14.3838C24.9881 13.5618 25.0185 11.9851 25.2695 11.0437C25.4671 10.3114 25.9006 9.37738 26.3265 8.7497C26.7372 8.15194 27.9006 7.08338 28.5546 6.70234C29.8853 5.92522 31.0336 5.6413 32.623 5.70106C33.8701 5.73842 34.5621 5.91026 35.5887 6.4109C35.9841 6.60522 36.3339 6.76962 36.3719 6.7845C36.4024 6.79946 36.4252 6.64258 36.4252 6.4333V6.05226H40.6077V19.6516H36.4252V19.278C36.4252 19.0763 36.4024 18.9044 36.3796 18.9044C36.3491 18.9044 36.1667 19.0015 35.9766 19.1136C35.5659 19.3677 34.7978 19.674 34.1743 19.8459C33.5507 20.0103 31.6192 20.0551 30.912 19.9207ZM33.6494 16.2068C34.2578 16.0498 34.927 15.6688 35.368 15.2353C36.5315 14.0921 36.7369 12.5379 35.9155 11.1406C35.5353 10.4905 34.7064 9.85543 33.908 9.58639C33.3377 9.39959 32.0601 9.39959 31.4822 9.58639C30.8434 9.80311 30.0678 10.3411 29.6875 10.8492C29.1704 11.5366 29.0183 12.0074 29.0183 12.8891C29.0183 13.5989 29.026 13.6662 29.2997 14.2117C29.7636 15.1532 30.5545 15.8332 31.543 16.1469C32.0373 16.3039 33.1704 16.3338 33.6494 16.2068Z" fill="#A6A6A6"/>
<path fill-rule="evenodd" clip-rule="evenodd" d="M74.6756 19.9438C73.3524 19.7121 71.976 19.0172 70.9647 18.0533C69.862 17.0146 69.1548 15.7594 68.8506 14.3246C68.6833 13.5326 68.6833 12.0457 68.8582 11.3209C69.5122 8.53367 71.6795 6.41159 74.4627 5.82879C76.1509 5.47015 78.1281 5.75407 79.5653 6.55359C79.8162 6.68807 80.0291 6.80015 80.0443 6.80015C80.0596 6.80015 80.0748 6.63575 80.0748 6.42655V6.05295H84.2574V19.6523H80.0748V18.8304L79.6794 19.077C79.2002 19.3758 78.4626 19.6822 77.8315 19.8466C77.2839 19.9886 75.2916 20.0558 74.6756 19.9438ZM77.5121 16.1404C80.0824 15.3558 80.9037 12.3296 79.0406 10.4914C78.1281 9.59479 76.8201 9.22111 75.4969 9.49759C73.6643 9.87871 72.3715 11.687 72.6909 13.413C72.9266 14.6834 73.9456 15.7668 75.2839 16.1778C75.8087 16.3347 76.9265 16.3198 77.5121 16.1404Z" fill="#A6A6A6"/>
<path fill-rule="evenodd" clip-rule="evenodd" d="M87.8917 19.8838C87.5953 19.7866 87.1467 19.5177 86.8504 19.2486C86.0362 18.5089 85.8009 17.3209 86.2723 16.3121C87.185 14.3469 90.0288 14.317 91.0254 16.2523C91.1923 16.5736 91.2151 16.723 91.2151 17.3731C91.2151 17.9784 91.1849 18.1876 91.0482 18.4716C90.8194 18.9573 90.348 19.4355 89.8391 19.6895C89.4736 19.8689 89.2912 19.9062 88.7514 19.9286C88.394 19.9361 88.0065 19.9137 87.8917 19.8838Z" fill="#A6A6A6"/>
<path fill-rule="evenodd" clip-rule="evenodd" d="M0 19.7266V0H4.63867V19.7266H0Z" fill="#A6A6A6"/>
<path fill-rule="evenodd" clip-rule="evenodd" d="M11.361 18.815C10.9884 18.3069 10.6614 17.866 10.631 17.8212C10.4637 17.6119 9.74125 16.648 8.9428 15.5795C7.4752 13.5994 6.92767 12.8596 6.1596 11.8434C5.75659 11.3129 5.3535 10.7674 5.26223 10.633L5.095 10.4013L5.33827 10.2294C5.47521 10.1323 5.6273 10.0202 5.68054 9.97536C5.72614 9.938 6.11392 9.64656 6.54738 9.34024C7.25464 8.83216 8.57016 7.64408 8.93523 7.17328C10.5626 5.11096 11.323 3.19064 11.5283 0.5828L11.5739 0H16.0454V0.71736C16.0454 2.65264 15.3533 5.29032 14.3496 7.17328C13.9618 7.91304 13.2545 9.03384 12.9503 9.41496C12.5017 9.97536 12.0074 10.5582 11.7412 10.8346L11.4218 11.1634L11.5816 11.3951C11.6652 11.5146 11.764 11.6342 11.7869 11.6566C11.8097 11.679 11.9618 11.8808 12.1291 12.105C12.2887 12.3291 12.6538 12.8222 12.9275 13.1884C13.2089 13.562 13.8628 14.4362 14.38 15.1312C15.5283 16.6854 16.2507 17.6493 16.3343 17.7465C16.5473 18.008 17.7183 19.6369 17.7183 19.6742C17.7183 19.7042 16.4408 19.7266 14.8743 19.7266H12.0303L11.361 18.815Z" fill="#A6A6A6"/>
<path fill-rule="evenodd" clip-rule="evenodd" d="M19.0112 19.6518V0H23.4218V19.6518H19.0112Z" fill="#A6A6A6"/>
<path fill-rule="evenodd" clip-rule="evenodd" d="M42.7368 19.6521V6.05273H47.0714V7.62937L47.5124 7.26321C48.1892 6.68785 48.8128 6.39641 49.8318 6.16481C50.1208 6.10505 50.5162 6.05273 50.7291 6.05273H51.1017V10.0653L50.5542 10.1027C49.9687 10.14 49.1854 10.4015 48.6303 10.7527C48.174 11.0367 47.558 11.6793 47.3223 12.1202L47.1094 12.5162L47.0865 16.0879L47.0637 19.6521H42.7368Z" fill="#A6A6A6"/>
<path fill-rule="evenodd" clip-rule="evenodd" d="M53.0029 19.6517V6.05231H57.1094V7.50191L57.4744 7.12079C58.3945 6.16439 59.7101 5.67871 61.3526 5.67871C63.1549 5.67871 64.691 6.24655 65.7784 7.32255C66.4248 7.95775 66.7594 8.50319 67.0788 9.45215L67.2613 9.97519L67.2841 14.8172L67.3069 19.6517H63.1245L63.1017 15.6391C63.0712 11.6266 63.0712 11.6191 62.8887 11.1334C62.6682 10.5356 62.1891 10.0201 61.6035 9.73607C61.2082 9.54183 61.1093 9.52687 60.2652 9.52687C59.3983 9.52687 59.3298 9.54183 58.8356 9.76599C58.0447 10.1322 57.52 10.7598 57.2995 11.6116C57.2082 11.9628 57.1854 12.725 57.1854 15.8409V19.6517H53.0029Z" fill="#A6A6A6"/>
</g>
<defs>
<clipPath id="clip0_0_1">
<rect width="1440" height="3621" fill="white" transform="translate(-465 -3546)"/>
</clipPath>
</defs>
</svg>
