<svg width="134" height="36" viewBox="0 0 134 36" fill="none" xmlns="http://www.w3.org/2000/svg">
<rect width="134" height="36" fill="#E5E5E5"/>
<g clip-path="url(#clip0_0_1)">
<rect width="1440" height="3621" transform="translate(-30 -22)" fill="white"/>
<path fill-rule="evenodd" clip-rule="evenodd" d="M111.76 18.4256C111.85 18.2492 111.948 18.0508 112.055 17.8307C112.232 17.4674 112.418 17.0537 112.615 16.5894C112.812 16.1254 112.978 15.6428 113.113 15.1428C113.279 14.5597 113.385 14.0834 113.431 13.7142C113.478 13.3453 113.501 13.0421 113.501 12.8036C113.501 12.6372 113.496 12.4973 113.486 12.3842C113.476 12.2708 113.471 12.1789 113.471 12.1075C113.471 12.0121 113.525 11.9019 113.634 11.7768C113.742 11.6517 113.883 11.5358 114.054 11.4287C114.225 11.3217 114.414 11.2323 114.622 11.1609C114.829 11.0895 115.026 11.0535 115.212 11.0535H115.243C115.575 11.0535 115.824 11.0747 115.99 11.1164C116.156 11.1581 116.239 11.28 116.239 11.4821C116.239 11.9107 116.319 12.3068 116.48 12.6697C116.641 13.0333 116.843 13.3842 117.086 13.7234C117.33 14.0626 117.594 14.3993 117.88 14.7322C118.164 15.0657 118.429 15.4226 118.673 15.8035C118.916 16.1851 119.119 16.5982 119.279 17.0448C119.44 17.4911 119.52 17.9943 119.52 18.554C119.52 19.0063 119.451 19.396 119.31 19.7232C119.171 20.0508 119.038 20.3037 118.914 20.4822C119.235 20.3278 119.528 20.1313 119.793 19.8932C120.057 19.655 120.306 19.3812 120.539 19.0716C120.685 18.8776 120.827 18.6692 120.963 18.4468C120.935 18.0675 120.92 17.6746 120.92 17.268C120.92 17.0536 120.928 16.7324 120.944 16.3038C120.959 15.8752 120.978 15.4349 120.999 14.9826C121.019 14.53 121.046 14.1222 121.076 13.7593C121.108 13.3961 121.139 13.1788 121.171 13.1074C121.348 12.7858 121.775 12.6251 122.452 12.6251C122.817 12.6251 123.138 12.6579 123.413 12.7233C123.689 12.789 123.869 12.9169 123.953 13.1074C123.995 13.2024 124.015 13.4819 124.015 13.9466C124.015 14.2084 124.01 14.5151 124 14.866C123.989 15.2176 123.979 15.5805 123.969 15.9554C123.958 16.3306 123.948 16.6995 123.937 17.0624C123.927 17.426 123.922 17.7504 123.922 18.0359C123.922 18.4408 123.932 18.8277 123.953 19.1963C123.973 19.5655 124.015 19.8902 124.077 20.1697C124.138 20.4496 124.224 20.6697 124.332 20.8305C124.44 20.9909 124.577 21.0715 124.743 21.0715C124.918 21.0715 125.106 20.9941 125.308 20.8397C125.509 20.6849 125.718 20.4764 125.934 20.2142C126.151 19.9528 126.37 19.6461 126.592 19.2948C126.814 18.9436 127.033 18.5715 127.25 18.1786V17.3751C127.25 16.0062 127.261 14.9883 127.281 14.3215C127.302 13.6551 127.354 13.2501 127.437 13.1074C127.541 12.9406 127.688 12.8187 127.88 12.7413C128.072 12.6639 128.349 12.6251 128.712 12.6251C129.065 12.6251 129.355 12.6579 129.583 12.7233C129.811 12.789 129.967 12.9169 130.05 13.1074C130.071 13.1551 130.086 13.4169 130.096 13.8932C130.107 14.3692 130.12 14.9974 130.135 15.7769C130.151 16.5568 130.161 17.4437 130.166 18.4376C130.171 19.4316 130.174 20.4708 130.174 21.5538C130.796 20.9464 131.384 20.2591 131.939 19.4909C132.494 18.7231 132.968 17.8337 133.362 16.8218C133.393 16.7143 133.432 16.6401 133.479 16.5985C133.525 16.5568 133.575 16.5359 133.627 16.5359C133.741 16.5359 133.831 16.673 133.899 16.9465C133.966 17.2207 134 17.5242 134 17.8571V18.0716C134 18.2383 133.984 18.3991 133.953 18.5539C133.922 18.7083 133.875 18.8514 133.813 18.9825C133.316 20.1015 132.748 21.0655 132.11 21.875C131.472 22.6848 130.817 23.4046 130.143 24.036C130.122 25.2501 130.091 26.4049 130.05 27.4999C130.008 28.5953 129.956 29.5475 129.894 30.3571C129.821 31.4404 129.63 32.3422 129.32 33.0626C129.009 33.7827 128.644 34.3598 128.226 34.7947C127.806 35.229 127.367 35.5385 126.906 35.7233C126.446 35.9078 126.024 36 125.641 36C125.103 36 124.609 35.8777 124.159 35.6339C123.709 35.3898 123.321 35.0534 122.995 34.6248C122.668 34.1965 122.418 33.6905 122.242 33.1072C122.066 32.5238 121.978 31.8867 121.978 31.1963C121.978 30.2797 122.128 29.4793 122.428 28.7946C122.727 28.1101 123.125 27.4879 123.622 26.9285C124.118 26.3688 124.692 25.8484 125.343 25.366C125.994 24.8841 126.672 24.3809 127.375 23.8572L127.313 21.1075C127.126 21.405 126.921 21.6909 126.698 21.9644C126.475 22.2386 126.232 22.4792 125.967 22.6877C125.703 22.8961 125.417 23.0626 125.112 23.1877C124.806 23.3127 124.477 23.3749 124.124 23.3749C123.575 23.3749 123.1 23.2205 122.701 22.9106C122.302 22.6015 121.97 22.1728 121.706 21.6248C121.562 21.3262 121.437 20.998 121.333 20.6405C121.086 21.0024 120.798 21.3543 120.469 21.6966C120.023 22.1609 119.502 22.5567 118.906 22.8842C118.31 23.2114 117.633 23.375 116.877 23.375C116.223 23.375 115.689 23.3189 115.274 23.2054C114.86 23.0924 114.531 22.9616 114.287 22.8125C114.043 22.6641 113.869 22.5178 113.766 22.3751C113.662 22.2323 113.595 22.1369 113.564 22.0896C113.512 21.9942 113.473 21.8366 113.447 21.6164C113.421 21.3963 113.408 21.1786 113.408 20.9645C113.408 20.7624 113.419 20.5893 113.439 20.4465C113.46 20.3037 113.501 20.2324 113.564 20.2324C113.626 20.2324 113.709 20.2709 113.813 20.3483C113.916 20.426 114.041 20.515 114.186 20.6165C114.331 20.7175 114.494 20.8069 114.676 20.8839C114.857 20.9617 115.057 21.0002 115.274 21.0002C115.513 21.0002 115.736 20.9465 115.943 20.8394C116.151 20.7324 116.327 20.5893 116.472 20.4112C116.617 20.2324 116.731 20.0211 116.814 19.7769C116.897 19.5331 116.939 19.2798 116.939 19.0179C116.939 18.5656 116.853 18.1819 116.682 17.866C116.511 17.5508 116.301 17.2473 116.052 16.9554C115.803 16.6639 115.539 16.3572 115.259 16.036C114.979 15.7145 114.73 15.3336 114.513 14.893C114.492 14.9767 114.466 15.0714 114.435 15.1788C114.414 15.2739 114.388 15.3753 114.357 15.482C114.326 15.5894 114.295 15.7085 114.264 15.8396C114.222 16.018 114.147 16.2622 114.038 16.5714C113.929 16.8812 113.805 17.2144 113.665 17.5713C113.525 17.9286 113.369 18.289 113.198 18.6519C113.164 18.7256 113.129 18.7979 113.095 18.8689C113.081 18.9086 113.066 18.9465 113.051 18.9825C112.978 19.1489 112.877 19.3751 112.747 19.6609C112.618 19.9464 112.462 20.2531 112.28 20.5803C112.099 20.9079 111.889 21.2386 111.651 21.5715C111.412 21.905 111.148 22.2054 110.858 22.4736C110.568 22.7411 110.248 22.9587 109.901 23.1251C109.554 23.2919 109.178 23.375 108.774 23.375C108.276 23.375 107.853 23.2502 107.506 23.0001C107.159 22.7502 106.871 22.3874 106.643 21.9107C106.197 22.3513 105.689 22.7054 105.119 22.9736C104.549 23.2414 103.942 23.375 103.299 23.375C102.605 23.375 101.946 23.2354 101.324 22.9555C100.702 22.676 100.163 22.292 99.7065 21.8036C99.256 21.3217 98.8968 20.7584 98.6282 20.1137C98.602 20.1586 98.5751 20.2041 98.5479 20.2504C98.2527 20.7503 97.8818 21.2323 97.4359 21.6966C96.9903 22.1609 96.469 22.5567 95.8727 22.8842C95.2767 23.2114 94.6004 23.375 93.8434 23.375C92.8171 23.375 91.9486 23.1937 91.2383 22.8305C90.528 22.4676 89.9554 22.0182 89.5197 21.4821C89.0844 20.9464 88.768 20.3663 88.5713 19.7412C88.3741 19.1165 88.2757 18.5359 88.2757 17.9999C88.2757 17.2625 88.4106 16.5657 88.6799 15.9106C88.9496 15.2565 89.3123 14.6852 89.7685 14.1965C90.2251 13.7085 90.7641 13.3248 91.3862 13.0449C92.0084 12.7651 92.6666 12.6248 93.3614 12.6248C93.8798 12.6248 94.3647 12.7053 94.8152 12.8661C95.2668 13.0269 95.6603 13.2534 95.9973 13.5449C96.3342 13.8364 96.6014 14.1876 96.7985 14.5982C96.9953 15.0092 97.094 15.4706 97.094 15.9823C97.094 16.518 96.9928 16.9943 96.7907 17.4109C96.5883 17.8278 96.3161 18.1787 95.9743 18.4645C95.632 18.75 95.2356 18.9645 94.7841 19.1073C94.3335 19.2504 93.859 19.3218 93.3614 19.3218C93.0294 19.3218 92.695 19.2857 92.358 19.2143C92.0211 19.143 91.6867 19.0423 91.3551 18.9108C91.5002 19.6136 91.8031 20.1313 92.2646 20.4645C92.7261 20.7977 93.2524 20.9645 93.8434 20.9645C94.4758 20.9645 95.0329 20.8662 95.5156 20.6698C95.9973 20.4733 96.4304 20.1935 96.8141 19.8306C97.1977 19.4677 97.5474 19.0299 97.8634 18.5179C97.982 18.3259 98.0991 18.1263 98.2141 17.9191C98.2237 17.2113 98.3582 16.5416 98.6179 15.9105C98.8876 15.2565 99.2504 14.6851 99.7065 14.1964C100.163 13.7085 100.702 13.3247 101.324 13.0449C101.946 12.765 102.605 12.6251 103.299 12.6251C103.818 12.6251 104.31 12.7085 104.777 12.8753C105.243 13.0421 105.674 13.2738 106.068 13.5714C106.099 13.3216 106.135 13.1671 106.176 13.1074C106.27 12.9406 106.381 12.8187 106.511 12.7414C106.64 12.664 106.887 12.6251 107.25 12.6251C107.602 12.6251 107.892 12.658 108.121 12.7233C108.349 12.7887 108.504 12.917 108.587 13.1074C108.629 13.2025 108.649 13.482 108.649 13.9466C108.649 14.2085 108.644 14.5152 108.634 14.866C108.624 15.2176 108.613 15.5805 108.603 15.9554C108.592 16.3307 108.582 16.6995 108.572 17.0624C108.561 17.4257 108.556 17.75 108.556 18.0359C108.556 18.4408 108.566 18.8277 108.587 19.1963C108.608 19.5655 108.649 19.8903 108.712 20.1698C108.774 20.4496 108.859 20.6697 108.968 20.8305C109.077 20.9909 109.214 21.0715 109.38 21.0715C109.619 21.0715 109.87 20.9496 110.134 20.7054C110.399 20.4616 110.671 20.1401 110.951 19.7411C111.223 19.3532 111.493 18.9151 111.76 18.4256ZM127.468 28.7857V27.625C127.468 27.1964 127.458 26.7441 127.437 26.2681C126.962 26.6367 126.521 26.9971 126.113 27.3483C125.706 27.6995 125.349 28.0653 125.045 28.4465C124.74 28.8274 124.503 29.2412 124.333 29.6878C124.162 30.1337 124.078 30.6366 124.078 31.1963C124.078 31.3394 124.101 31.527 124.147 31.7591C124.193 31.9909 124.278 32.2142 124.402 32.4287C124.526 32.6429 124.694 32.8273 124.906 32.9824C125.117 33.1365 125.383 33.2142 125.703 33.2142C126.271 33.2142 126.707 32.8273 127.011 32.0535C127.315 31.2796 127.468 30.1906 127.468 28.7857ZM37.8601 19.9898C37.8456 19.7462 37.8307 19.4877 37.8159 19.2144C37.7483 17.9883 37.6863 16.4767 37.629 14.6788C37.5724 12.8814 37.5437 10.8157 37.5437 8.48219C37.5437 7.63698 37.554 6.77976 37.5745 5.91053C37.5954 5.04201 37.6237 4.2445 37.6595 3.51802C37.6956 2.7919 37.7345 2.17601 37.7755 1.66967C37.8169 1.16403 37.8633 0.851318 37.915 0.73224C37.9564 0.672878 38.036 0.601396 38.1549 0.518006C38.2735 0.434616 38.4019 0.354407 38.5414 0.27667C38.6808 0.199287 38.8199 0.133918 38.959 0.0802097C39.0984 0.0268543 39.2043 0 39.2764 0C39.4003 0 39.5238 0.0240276 39.6477 0.071376C39.7716 0.119431 39.8848 0.175967 39.9882 0.241336C40.0911 0.306705 40.1789 0.374901 40.2511 0.44663C40.3233 0.518006 40.37 0.577721 40.3905 0.624717C40.4213 0.756621 40.455 1.2294 40.4911 2.04492C40.5271 2.86045 40.5452 3.94663 40.5452 5.30384C40.5452 6.06565 40.5381 6.9052 40.5233 7.82178C40.5087 8.73837 40.4918 9.68498 40.4723 10.6609C40.4528 11.6369 40.4288 12.6223 40.3994 13.6163C40.3704 14.6106 40.341 15.5714 40.312 16.5C40.5296 16.048 40.7915 15.5894 41.0973 15.1255C41.4031 14.6608 41.7531 14.2442 42.147 13.875C42.5412 13.5064 42.9843 13.2054 43.477 12.9736C43.9692 12.7411 44.5164 12.6248 45.1177 12.6248C45.5533 12.6248 45.9419 12.6994 46.2841 12.8481C46.6264 12.9972 46.9166 13.2025 47.1551 13.4644C47.3936 13.7266 47.5748 14.0301 47.6994 14.3753C47.824 14.7205 47.8859 15.0894 47.8859 15.482C47.8548 16.0777 47.715 16.6607 47.4662 17.2321C47.3625 17.4706 47.2301 17.7204 47.0695 17.9823C46.9088 18.2444 46.7092 18.4999 46.4706 18.7501C46.2321 18.9999 45.9522 19.2412 45.6308 19.4734C45.3095 19.7052 44.9361 19.9108 44.5111 20.0893C44.5111 20.1016 44.5447 20.1518 44.6123 20.2412C44.6795 20.3306 44.7779 20.4285 44.9078 20.5359C45.0373 20.643 45.2005 20.7412 45.3976 20.8306C45.5944 20.9196 45.8177 20.9645 46.0665 20.9645C46.6366 20.9645 47.1473 20.8634 47.5982 20.661C48.0494 20.4585 48.4614 20.1758 48.8347 19.8126C48.8563 19.7915 48.8779 19.7702 48.8995 19.7486L48.897 19.7412C48.6999 19.1165 48.6015 18.5359 48.6015 17.9999C48.6015 17.2625 48.7363 16.5657 49.0057 15.9106C49.2753 15.2565 49.6381 14.6852 50.0943 14.1965C50.5508 13.7085 51.0898 13.3248 51.712 13.0449C52.3341 12.7651 52.9924 12.6248 53.6871 12.6248C54.2056 12.6248 54.6905 12.7054 55.141 12.8661C55.5926 13.0269 55.9861 13.2534 56.323 13.5449C56.6599 13.8364 56.9271 14.1876 57.1243 14.5982C57.321 15.0092 57.4198 15.4706 57.4198 15.9823C57.4198 16.518 57.3186 16.9943 57.1165 17.4109C56.914 17.8278 56.6419 18.1787 56.3 18.4645C55.9578 18.75 55.5614 18.9645 55.1098 19.1073C54.6593 19.2504 54.1847 19.3218 53.6871 19.3218C53.3552 19.3218 53.0207 19.2857 52.6838 19.2143C52.3469 19.143 52.0124 19.0423 51.6808 18.9108C51.8259 19.6136 52.1289 20.1313 52.5904 20.4645C53.0519 20.7977 53.5781 20.9645 54.1692 20.9645C54.8016 20.9645 55.3586 20.8662 55.8414 20.6698C56.323 20.4733 56.7562 20.1935 57.1398 19.8306C57.5235 19.4677 57.8731 19.0299 58.1892 18.5179C58.5056 18.0063 58.8089 17.4405 59.0994 16.8215C59.1511 16.7144 59.1925 16.6402 59.2236 16.5985C59.2548 16.5565 59.3015 16.536 59.3638 16.536C59.4777 16.536 59.5683 16.6731 59.6359 16.9466C59.7032 17.2204 59.7371 17.5243 59.7371 17.8571C59.7371 18.0596 59.7265 18.2624 59.706 18.4645C59.6851 18.667 59.6335 18.8394 59.5503 18.9825C59.3949 19.3278 59.1695 19.7504 58.8736 20.2504C58.5785 20.7503 58.2076 21.2323 57.7616 21.6966C57.3161 22.1609 56.7948 22.5567 56.1984 22.8842C55.6025 23.2114 54.9262 23.375 54.1692 23.375C53.1428 23.375 52.2743 23.1937 51.5641 22.8305C50.8538 22.4676 50.2811 22.0182 49.8455 21.4821C49.8083 21.4362 49.7719 21.39 49.7361 21.3434C49.6346 21.4623 49.5284 21.58 49.418 21.6966C48.977 22.1609 48.4564 22.5567 47.8548 22.8842C47.2535 23.2114 46.5743 23.375 45.8177 23.375C45.2783 23.3393 44.7496 23.2026 44.2311 22.9644C44.0135 22.857 43.7827 22.7263 43.5392 22.5715C43.2954 22.4168 43.0544 22.2231 42.8159 21.991C42.5773 21.7592 42.3441 21.4853 42.1162 21.1698C41.8879 20.8543 41.6752 20.4942 41.4784 20.0893C41.5407 20.0536 41.6752 19.9826 41.8826 19.8751C42.09 19.7677 42.3338 19.6338 42.6138 19.4734C42.8937 19.3126 43.1864 19.1253 43.4925 18.9105C43.7983 18.6967 44.0807 18.4618 44.3401 18.2052C44.5992 17.9498 44.8144 17.6759 44.9857 17.384C45.1566 17.0925 45.2422 16.7858 45.2422 16.4646C45.2422 16.1311 45.1513 15.8512 44.9701 15.6251C44.7885 15.3993 44.4955 15.2859 44.0913 15.2859C43.5725 15.2859 43.0855 15.5 42.6293 15.9286C42.1728 16.3572 41.7687 16.9053 41.4162 17.5713C41.0637 18.2384 40.7682 18.9851 40.5296 19.8126C40.2911 20.6401 40.1304 21.4528 40.0476 22.2503C40.0267 22.3931 40.0165 22.5178 40.0165 22.6249V22.9644C39.9853 23.0599 39.9177 23.1369 39.8144 23.1962C39.7107 23.2563 39.6017 23.2977 39.4877 23.3217C39.3529 23.357 39.2025 23.375 39.0365 23.375C38.8811 23.375 38.741 23.357 38.6168 23.3217C38.5025 23.2977 38.3963 23.2563 38.2979 23.1962C38.1992 23.1369 38.1347 23.0599 38.1036 22.9644C38.0955 22.9555 38.0735 22.7633 38.0381 22.3881C38.0084 22.417 37.978 22.4455 37.9475 22.4736C37.6573 22.7411 37.3385 22.9587 36.9913 23.1251C36.6437 23.2919 36.2679 23.375 35.8637 23.375C35.3663 23.375 34.9438 23.2502 34.5962 23.0001C34.2487 22.7502 33.961 22.3874 33.733 21.9107C33.2875 22.3513 32.7793 22.7054 32.2091 22.9736C31.6386 23.2414 31.032 23.375 30.3893 23.375C29.6946 23.375 29.0364 23.2354 28.4142 22.9555C27.792 22.676 27.253 22.292 26.7969 21.8036C26.3403 21.3157 25.9776 20.7443 25.7082 20.0896C25.6427 19.9304 25.5851 19.7688 25.5355 19.6047C25.3996 19.7253 25.1835 19.8918 24.887 20.1046C24.4761 20.3993 23.9513 20.7339 23.3121 21.1092C22.673 21.4841 21.9358 21.87 21.1006 22.2661C20.2653 22.6625 19.3671 23.0268 18.4063 23.359C17.4451 23.6908 16.4371 23.9642 15.3829 24.1787C14.3282 24.3932 13.2598 24.4999 12.1775 24.4999C11.0949 24.4999 10.0407 24.4088 9.01398 24.2268C7.9873 24.0445 7.02396 23.7688 6.12363 23.3992C5.22294 23.0296 4.39728 22.5664 3.64629 22.0088C2.89495 21.4519 2.24872 20.7958 1.70759 20.0403C1.16612 19.2849 0.746387 18.4305 0.447691 17.4768C0.148994 16.5235 0 15.4733 0 14.3267C0 13.1805 0.202788 12.0558 0.608718 10.9519C1.01465 9.8484 1.58621 8.80108 2.32339 7.80995C3.06022 6.81881 3.94216 5.90294 4.96884 5.06197C5.99516 4.22101 7.12447 3.49771 8.35607 2.89207C9.58801 2.28679 10.9038 1.8126 12.3035 1.46985C13.7032 1.1271 15.1496 0.955378 16.6424 0.955378C17.2586 0.955378 17.8673 0.993186 18.4693 1.0681C19.0713 1.14301 19.6471 1.25572 20.1977 1.40554C20.7484 1.55571 21.2566 1.74581 21.7234 1.97584C22.1902 2.20622 22.5962 2.47689 22.9412 2.78748C23.2863 3.09842 23.557 3.45212 23.7531 3.84823C23.9491 4.24468 24.0472 4.68389 24.0472 5.16621C24.0472 5.69128 23.9467 6.17607 23.7464 6.62094C23.5453 7.06509 23.2771 7.46437 22.9412 7.81772C22.6054 8.17142 22.2157 8.47954 21.7723 8.74207C21.3292 9.00496 20.8673 9.22439 20.3867 9.40107C19.9061 9.57774 19.4188 9.71201 18.924 9.80282C18.4293 9.89398 17.9582 9.93921 17.5105 9.93921C17.1743 9.93921 16.8597 9.92614 16.5656 9.89928C16.2719 9.87278 16.0174 9.83498 15.8026 9.78692C15.5878 9.73851 15.4175 9.67703 15.2919 9.60177C15.1659 9.52686 15.1029 9.43569 15.1029 9.32863C15.1029 9.14666 15.1588 8.94596 15.2707 8.72617C15.3829 8.50675 15.5181 8.35375 15.6766 8.26824C15.7138 8.25728 15.8589 8.24668 16.1105 8.23573C16.3625 8.22548 16.6658 8.1958 17.0204 8.14739C17.375 8.09898 17.753 8.02443 18.1543 7.92231C18.5553 7.82055 18.9286 7.67073 19.2741 7.4725C19.6191 7.27427 19.904 7.01739 20.128 6.70079C20.3517 6.38525 20.4639 5.99657 20.4639 5.53581C20.4639 5.30013 20.3938 5.0595 20.2537 4.81251C20.1139 4.56623 19.8899 4.34397 19.582 4.14574C19.2741 3.94752 18.8702 3.78392 18.3712 3.6553C17.8719 3.52703 17.2586 3.46272 16.5306 3.46272C15.6253 3.46272 14.692 3.57262 13.7312 3.79204C12.77 4.01183 11.8321 4.33337 10.9176 4.75633C10.0031 5.17999 9.13997 5.69941 8.32811 6.31529C7.51625 6.93153 6.8049 7.6361 6.1937 8.42866C5.58215 9.22157 5.09943 10.095 4.74481 11.0484C4.3902 12.002 4.21289 13.0306 4.21289 14.1338C4.21289 14.4341 4.24085 14.8412 4.29712 15.3553C4.35304 15.8694 4.47655 16.4189 4.66766 17.0026C4.85912 17.587 5.14366 18.1789 5.52199 18.7789C5.89961 19.3789 6.41065 19.9223 7.0544 20.4099C7.69816 20.8975 8.49621 21.294 9.44786 21.5989C10.3999 21.9046 11.5476 22.0572 12.8914 22.0572C13.9081 22.0572 14.9281 21.9449 15.9495 21.7198C16.9715 21.4947 17.9515 21.2134 18.889 20.876C19.8269 20.5385 20.7038 20.1742 21.5206 19.7831C22.3371 19.3919 23.0509 19.0276 23.6621 18.6902C24.2733 18.3527 24.761 18.0715 25.1248 17.8464C25.1922 17.8047 25.2538 17.7669 25.3097 17.7329C25.3385 17.0936 25.4713 16.486 25.7082 15.9105C25.9776 15.2565 26.3403 14.6851 26.7969 14.1964C27.253 13.7085 27.792 13.3247 28.4142 13.0449C29.0364 12.765 29.6946 12.6251 30.3893 12.6251C30.9078 12.6251 31.4005 12.7085 31.8669 12.8753C32.3334 13.0421 32.7637 13.2738 33.1576 13.5714C33.1887 13.3216 33.2252 13.1671 33.2666 13.1074C33.36 12.9406 33.4712 12.8187 33.601 12.7414C33.7306 12.664 33.9765 12.6251 34.3396 12.6251C34.6921 12.6251 34.9827 12.658 35.2106 12.7233C35.4383 12.7887 35.5941 12.917 35.6769 13.1074C35.7183 13.2025 35.7392 13.482 35.7392 13.9466C35.7392 14.2085 35.7339 14.5152 35.7236 14.866C35.7133 15.2176 35.7027 15.5805 35.6924 15.9554C35.6822 16.3307 35.6716 16.6995 35.6617 17.0624C35.651 17.4257 35.6461 17.75 35.6461 18.0359C35.6461 18.4408 35.656 18.8277 35.6769 19.1963C35.6978 19.5655 35.7392 19.8903 35.8014 20.1698C35.8637 20.4496 35.9494 20.6697 36.058 20.8305C36.167 20.9909 36.3043 21.0715 36.4703 21.0715C36.7089 21.0715 36.9601 20.9496 37.2245 20.7054C37.4315 20.5145 37.6435 20.2759 37.8601 19.9898ZM70.7758 6.10456C71.4061 6.02466 72.252 5.94244 73.314 5.85714C73.3243 5.22642 73.3427 4.6222 73.3685 4.04483C73.3944 3.46746 73.4227 2.94663 73.4538 2.48198C73.485 2.01803 73.5189 1.63112 73.555 1.32159C73.5915 1.01205 73.6251 0.815948 73.6563 0.732205C73.7079 0.672842 73.7932 0.601396 73.9125 0.518006C74.0317 0.434616 74.1641 0.354407 74.3092 0.27667C74.4547 0.199287 74.5969 0.133918 74.7371 0.080563C74.8769 0.0268543 74.9834 0 75.056 0C75.1802 0 75.3047 0.0240276 75.429 0.071376C75.5535 0.119431 75.6675 0.175967 75.7712 0.241336C75.8749 0.306705 75.9602 0.375254 76.0278 0.44663C76.095 0.518006 76.1343 0.577721 76.1446 0.62507C76.1962 0.756585 76.2352 1.22936 76.2614 2.04489C76.2868 2.86041 76.2999 3.9466 76.2999 5.3038V5.71439C76.6836 5.69072 77.075 5.6787 77.4745 5.6787H78.7263C78.9231 5.6787 79.1722 5.68506 79.4727 5.69672C79.7735 5.70838 80.0973 5.7204 80.4445 5.73241C80.7921 5.74442 81.1421 5.76245 81.4946 5.78577C81.847 5.80979 82.1737 5.83665 82.4745 5.86633C82.775 5.89636 83.0291 5.92286 83.2365 5.94654C83.4439 5.97057 83.5734 5.99989 83.6254 6.03594C83.6668 6.08364 83.7135 6.16985 83.7652 6.29458C83.8172 6.41967 83.8661 6.55394 83.9131 6.69669C83.9595 6.83945 83.9984 6.98255 84.0296 7.1253C84.0607 7.26805 84.0763 7.38148 84.0763 7.46452C84.0763 7.70267 84.0246 7.93164 83.9209 8.15177C83.8172 8.37226 83.7394 8.51219 83.6874 8.57155C83.646 8.58356 83.5033 8.5984 83.2598 8.61642C83.016 8.63409 82.7361 8.65176 82.42 8.66978C82.1036 8.6878 81.7901 8.69946 81.479 8.70547C81.1679 8.71148 80.9294 8.7143 80.7637 8.7143C80.1207 8.7143 79.4104 8.70547 78.6329 8.6878C77.8553 8.66978 77.0672 8.64293 76.2688 8.60724C76.2585 9.31004 76.238 10.0333 76.2069 10.7768C76.1757 11.5209 76.147 12.2683 76.1208 13.0181C76.095 13.7679 76.072 14.5092 76.0511 15.2413C76.0306 15.9735 76.02 16.6731 76.02 17.3391V18.661C76.02 18.9942 76.0306 19.3097 76.0511 19.6073C76.072 19.9051 76.1106 20.161 76.1679 20.3751C76.2245 20.5896 76.2975 20.7592 76.3859 20.8843C76.4737 21.009 76.5852 21.0715 76.72 21.0715C76.9479 21.0715 77.1971 20.9496 77.4664 20.7055C77.7361 20.4617 78.0082 20.1401 78.2832 19.7412C78.5575 19.3423 78.8325 18.8903 79.1071 18.384C79.3817 17.8783 79.644 17.3572 79.8928 16.8215C79.9859 16.631 80.074 16.536 80.1572 16.536C80.2711 16.536 80.3674 16.6731 80.4445 16.9466C80.5227 17.2204 80.5613 17.5243 80.5613 17.8571C80.5613 18.0596 80.5457 18.2624 80.5149 18.4645C80.4838 18.667 80.4371 18.8394 80.3748 18.9825C80.3022 19.149 80.2039 19.3751 80.0793 19.661C79.9547 19.9465 79.8018 20.2532 79.6206 20.5804C79.4387 20.9079 79.2292 21.2383 78.9907 21.5715C78.7521 21.9051 78.4878 22.2054 78.1976 22.4736C77.907 22.7411 77.591 22.9588 77.2487 23.1252C76.9065 23.292 76.5385 23.375 76.1446 23.375C75.7089 23.375 75.3408 23.2206 75.0404 22.9107C74.7396 22.6015 74.4908 22.2114 74.2936 21.7411C74.1418 21.378 74.0144 20.9921 73.9118 20.5829C73.7302 20.9096 73.5207 21.2394 73.2829 21.5714C73.0447 21.905 72.7803 22.2054 72.4901 22.4735C72.1996 22.7414 71.8807 22.9587 71.5335 23.1251C71.186 23.2919 70.8105 23.3749 70.406 23.3749C69.8564 23.3749 69.3899 23.2205 69.0063 22.9106C68.6227 22.6015 68.3087 22.1728 68.0656 21.6248C67.8214 21.0778 67.6427 20.4316 67.5287 19.6878C67.4148 18.9436 67.3578 18.1369 67.3578 17.268C67.3578 17.0536 67.3627 16.7324 67.3734 16.3038C67.3836 15.8752 67.3992 15.4349 67.4201 14.9826C67.4406 14.53 67.4664 14.1222 67.4976 13.7593C67.5287 13.3961 67.5652 13.1788 67.6066 13.1074C67.7 12.9406 67.8451 12.8187 68.0419 12.7413C68.239 12.6639 68.519 12.6251 68.8817 12.6251C69.2342 12.6251 69.5248 12.6579 69.7527 12.7233C69.9809 12.789 70.1363 12.9169 70.2195 13.1074C70.2609 13.2024 70.2814 13.4819 70.2814 13.9466C70.2814 14.2084 70.2765 14.5151 70.2662 14.866C70.2556 15.2176 70.2453 15.5805 70.235 15.9554C70.2244 16.3306 70.2142 16.6995 70.2039 17.0624C70.1933 17.426 70.1883 17.7504 70.1883 18.0359C70.1883 18.4408 70.1986 18.8277 70.2195 19.1963C70.24 19.5655 70.2814 19.8902 70.3437 20.1697C70.406 20.4496 70.4916 20.6697 70.6003 20.8305C70.7093 20.9909 70.8466 21.0715 71.0126 21.0715C71.2302 21.0715 71.4741 20.9496 71.7434 20.7054C72.0131 20.4616 72.2877 20.14 72.5676 19.7411C72.8476 19.3422 73.1275 18.8903 73.4075 18.3839C73.4485 18.31 73.4889 18.2358 73.5292 18.1612C73.5062 17.8919 73.4917 17.6506 73.485 17.4377C73.4747 17.0985 73.4694 16.9052 73.4694 16.8572C73.4177 15.7385 73.371 14.482 73.3296 13.0894C73.2882 11.6969 73.2673 10.1609 73.2673 8.48215V8.44647C72.7488 8.42279 72.2668 8.39629 71.8213 8.36626C71.5165 8.34597 71.2398 8.32569 70.9906 8.3053C70.974 8.36223 70.9552 8.4183 70.9347 8.4736C70.831 8.75345 70.6937 8.99726 70.5228 9.20538C70.3515 9.41386 70.1519 9.57781 69.924 9.69689C69.6957 9.81561 69.4522 9.87497 69.1928 9.87497H69.1309C68.8715 9.86331 68.6301 9.79476 68.4078 9.66968C68.1845 9.54495 67.9927 9.37817 67.832 9.16969C67.671 8.96157 67.5471 8.71423 67.4587 8.42873C67.3709 8.14287 67.3267 7.83369 67.3267 7.50013V7.39307C67.3369 7.05986 67.3914 6.75316 67.4898 6.47331C67.5885 6.19346 67.7234 5.94965 67.894 5.74117C68.0656 5.53305 68.262 5.37228 68.485 5.25921C68.7079 5.14614 68.944 5.08925 69.1928 5.08925H69.2862C69.5453 5.10162 69.7863 5.16981 70.0093 5.2949C70.2322 5.41963 70.424 5.58959 70.5851 5.80372C70.6551 5.89714 70.7185 5.99742 70.7758 6.10456ZM32.8161 16.7412C32.7025 16.402 32.5397 16.1073 32.328 15.8572C32.1157 15.6074 31.8499 15.4081 31.5296 15.2593C31.2093 15.1105 30.8321 15.036 30.3978 15.036C30.1083 15.036 29.8373 15.1137 29.5842 15.2681C29.3308 15.4229 29.1086 15.6339 28.9178 15.902C28.7263 16.1699 28.5766 16.4822 28.468 16.8395C28.3597 17.1964 28.3052 17.5836 28.3052 18.0002C28.3052 18.4051 28.3597 18.7857 28.468 19.1429C28.5766 19.5002 28.7263 19.8125 28.9178 20.0804C29.1086 20.3482 29.3308 20.5623 29.5842 20.7235C29.8373 20.8842 30.1083 20.9644 30.3978 20.9644C30.8526 20.9644 31.2426 20.8871 31.5682 20.7323C31.8938 20.5775 32.1624 20.3662 32.3741 20.0984C32.586 19.8305 32.7435 19.5154 32.8472 19.1518C32.9502 18.7889 33.0022 18.4051 33.0022 18.0002V17.8218C32.992 17.4405 32.9297 17.0805 32.8161 16.7412ZM105.726 16.7412C105.612 16.402 105.45 16.1073 105.238 15.8572C105.026 15.6074 104.76 15.4081 104.439 15.2593C104.119 15.1105 103.742 15.036 103.308 15.036C103.018 15.036 102.747 15.1137 102.494 15.2681C102.241 15.4229 102.019 15.6339 101.827 15.902C101.636 16.1699 101.486 16.4822 101.378 16.8395C101.269 17.1964 101.215 17.5836 101.215 18.0002C101.215 18.4051 101.269 18.7857 101.378 19.1429C101.486 19.5002 101.636 19.8125 101.827 20.0804C102.019 20.3482 102.241 20.5623 102.494 20.7235C102.747 20.8842 103.018 20.9644 103.308 20.9644C103.762 20.9644 104.153 20.8871 104.478 20.7323C104.804 20.5775 105.072 20.3662 105.284 20.0984C105.496 19.8305 105.654 19.5154 105.757 19.1518C105.86 18.7889 105.912 18.4051 105.912 18.0002V17.8218C105.902 17.4405 105.839 17.0805 105.726 16.7412ZM55.0557 16.3572C55.0557 16.1074 55.0168 15.8993 54.9393 15.7321C54.861 15.5657 54.7602 15.4286 54.6356 15.3215C54.5114 15.2145 54.3663 15.1403 54.2003 15.0982C54.0343 15.0565 53.8634 15.036 53.6871 15.036C53.4277 15.036 53.1789 15.1046 52.9404 15.2413C52.7022 15.3781 52.4867 15.5625 52.2952 15.7947C52.1031 16.0268 51.9452 16.301 51.8206 16.6162C51.6964 16.9317 51.6186 17.2681 51.5874 17.625C51.7014 17.6851 51.8489 17.7264 52.0305 17.7501C52.2121 17.7741 52.4067 17.7858 52.6141 17.7858C52.8834 17.7858 53.1609 17.7624 53.4461 17.7144C53.731 17.667 53.9929 17.5865 54.2314 17.4734C54.47 17.3603 54.6667 17.2116 54.8225 17.0271C54.9778 16.8423 55.0557 16.6194 55.0557 16.3572ZM94.7299 16.3572C94.7299 16.1074 94.691 15.8993 94.6135 15.7321C94.5353 15.5657 94.4344 15.4286 94.3098 15.3215C94.1856 15.2145 94.0405 15.1403 93.8745 15.0982C93.7086 15.0565 93.5376 15.036 93.3614 15.036C93.102 15.036 92.8532 15.1046 92.6146 15.2413C92.3764 15.3781 92.1609 15.5625 91.9695 15.7947C91.7773 16.0268 91.6194 16.301 91.4949 16.6162C91.3707 16.9317 91.2928 17.2681 91.2617 17.625C91.3756 17.6851 91.5232 17.7264 91.7047 17.7501C91.8863 17.7741 92.0809 17.7858 92.2883 17.7858C92.5577 17.7858 92.8351 17.7624 93.1204 17.7144C93.4053 17.667 93.6671 17.5865 93.9057 17.4734C94.1442 17.3603 94.341 17.2116 94.4967 17.0271C94.6521 16.8423 94.7299 16.6194 94.7299 16.3572Z" fill="black"/>
</g>
<defs>
<clipPath id="clip0_0_1">
<rect width="1440" height="3621" fill="white" transform="translate(-30 -22)"/>
</clipPath>
</defs>
</svg>
