<svg width="47" height="36" viewBox="0 0 47 36" fill="none" xmlns="http://www.w3.org/2000/svg">
<rect width="47" height="36" fill="#E5E5E5"/>
<g clip-path="url(#clip0_0_1)">
<rect width="1440" height="3621" transform="translate(-397 -3537)" fill="white"/>
<rect x="-397" y="-44" width="1440" height="128" fill="#F9F9F9"/>
<path fill-rule="evenodd" clip-rule="evenodd" d="M8.52988 35.8011V33.4172C8.53231 33.3846 8.53344 33.3521 8.53344 33.3195C8.53344 32.5435 7.8863 31.905 7.10075 31.905C7.07255 31.905 7.04444 31.9058 7.01664 31.9074C6.47574 31.8725 5.95622 32.1319 5.66442 32.5829C5.39838 32.1454 4.90942 31.8856 4.39266 31.9074C3.94276 31.8848 3.51336 32.1002 3.2658 32.4716V32.0028H2.42871V35.8011H3.2739V33.7113C3.26823 33.6715 3.26539 33.631 3.26539 33.5909C3.26539 33.1026 3.67267 32.7009 4.1669 32.7009C4.18343 32.7009 4.19948 32.7013 4.2156 32.7021C4.77101 32.7021 5.05269 33.0597 5.05269 33.7033V35.817H5.89788V33.7113C5.89261 33.6727 5.89018 33.6338 5.89018 33.5948C5.89018 33.1046 6.29908 32.7009 6.79574 32.7009C6.81016 32.7009 6.82507 32.7013 6.83958 32.7021C7.41104 32.7021 7.68469 33.0597 7.68469 33.7033V35.817L8.52988 35.8011ZM21.0341 32.0027H19.6577V30.8506H18.8125V32.0027H18.0479V32.7576H18.8286V34.5058C18.8286 35.3879 19.1747 35.9123 20.1647 35.9123C20.5346 35.9135 20.8972 35.8118 21.2111 35.6183L20.9696 34.9111C20.7451 35.0434 20.4903 35.1173 20.2291 35.1256C19.8266 35.1256 19.6737 34.8713 19.6737 34.4899V32.7576H21.0421L21.0341 32.0027ZM28.1733 31.9075C27.758 31.8956 27.368 32.1094 27.1591 32.4638V32.0029H26.3301V35.8012H27.1672V33.6716C27.1672 33.0438 27.4409 32.6942 27.9721 32.6942C28.1512 32.6918 28.329 32.724 28.4953 32.7896L28.7528 31.995C28.5617 31.9274 28.3601 31.8924 28.1572 31.8916L28.1733 31.9075ZM17.3797 32.3052C16.906 32.0271 16.3611 31.8892 15.8102 31.9079C14.8362 31.9079 14.2003 32.3687 14.2003 33.1236C14.2003 33.7435 14.6672 34.1249 15.5284 34.2441L15.9309 34.2997C16.3897 34.3632 16.607 34.4824 16.607 34.697C16.607 34.991 16.3012 35.1579 15.7297 35.1579C15.2701 35.171 14.8194 35.0311 14.4499 34.7606L14.0474 35.4042C14.5348 35.7403 15.1191 35.9131 15.7136 35.8969C16.8243 35.8969 17.4682 35.3803 17.4682 34.6573C17.4682 33.9342 16.9612 33.6402 16.1241 33.521L15.7216 33.4653C15.3594 33.4176 15.0697 33.3461 15.0697 33.0919C15.0697 32.8376 15.3433 32.6469 15.8021 32.6469C16.2263 32.6516 16.642 32.7641 17.0095 32.9727L17.3797 32.3052ZM39.8001 31.9075C39.3847 31.8956 38.9948 32.1094 38.7859 32.4638V32.0029H37.9568V35.8012H38.794V33.6716C38.794 33.0438 39.0676 32.6942 39.5988 32.6942C39.7779 32.6918 39.9558 32.724 40.122 32.7896L40.3796 31.995C40.1884 31.9274 39.9868 31.8924 39.784 31.8916L39.8001 31.9075ZM29.0144 33.8943C29.0136 33.9177 29.0132 33.9412 29.0132 33.965C29.0132 35.0175 29.8905 35.884 30.957 35.884C30.9937 35.884 31.0303 35.8828 31.0669 35.8808C31.5692 35.9063 32.0638 35.7446 32.4513 35.4279L32.0489 34.7604C31.7595 34.9781 31.4065 35.0981 31.0428 35.1021C30.4045 35.0512 29.9071 34.5184 29.9071 33.8864C29.9071 33.2542 30.4045 32.7214 31.0428 32.6706C31.4065 32.6745 31.7595 32.7945 32.0489 33.0123L32.4513 32.3448C32.0638 32.0281 31.5692 31.8664 31.0669 31.8918C31.0303 31.8899 30.9937 31.8887 30.957 31.8887C29.8905 31.8887 29.0132 32.7552 29.0132 33.8076C29.0132 33.8315 29.0136 33.8549 29.0144 33.8784V33.8943ZM36.8544 35.786V32.0036H36.0172V32.4644C35.729 32.0985 35.2791 31.8912 34.8099 31.9082C33.7059 31.9082 32.7976 32.8049 32.7976 33.8948C32.7976 34.9846 33.7059 35.8813 34.8099 35.8813C35.2791 35.8984 35.729 35.691 36.0172 35.3251V35.786H36.8544ZM33.7392 33.8941C33.7755 33.2906 34.2882 32.8135 34.9003 32.8135C35.5381 32.8135 36.0634 33.332 36.0634 33.9616C36.0634 34.5894 35.5422 35.1068 34.9063 35.1099H34.8918C34.2579 35.1099 33.7368 34.5954 33.7368 33.9696C33.7368 33.9446 33.7376 33.9192 33.7392 33.8941ZM23.6379 31.9082C22.5448 31.9233 21.6538 32.8152 21.6538 33.8948C21.6538 34.9846 22.5621 35.8813 23.6661 35.8813H23.6942C24.2729 35.9108 24.8428 35.7264 25.2919 35.3648L24.8895 34.753C24.5719 35.0044 24.178 35.1443 23.7707 35.1503C23.1988 35.1988 22.6849 34.7836 22.6197 34.2206H25.4771V33.9027C25.4771 32.7108 24.7285 31.9161 23.6499 31.9161L23.6379 31.9082ZM23.6379 32.647C23.6448 32.647 23.6516 32.6466 23.6584 32.6466C24.1739 32.6466 24.601 33.0598 24.6119 33.5688H22.5996C22.6298 33.0415 23.0874 32.6291 23.6218 32.647H23.6379ZM44.6094 35.7856V30.4775H43.8045V32.4641C43.5164 32.0982 43.0664 31.8908 42.5972 31.9079C41.4932 31.9079 40.5849 32.8046 40.5849 33.8944C40.5849 34.9843 41.4932 35.881 42.5972 35.881C43.0664 35.8981 43.5164 35.6907 43.8045 35.3247V35.7856H44.6094ZM46.0059 35.2493C46.0582 35.2485 46.1102 35.258 46.1589 35.2771C46.2052 35.2958 46.2474 35.3227 46.2836 35.3565C46.319 35.3907 46.3476 35.4312 46.3681 35.4757C46.4092 35.5695 46.4092 35.6759 46.3681 35.7697C46.3476 35.8143 46.319 35.8547 46.2836 35.8889C46.2474 35.9227 46.2052 35.9497 46.1589 35.9684C46.1106 35.9895 46.0586 36.0002 46.0059 36.0002C45.8506 35.999 45.7089 35.9092 45.6437 35.7697C45.6031 35.6759 45.6031 35.5695 45.6437 35.4757C45.6643 35.4312 45.6928 35.3907 45.7283 35.3565C45.7645 35.3227 45.8067 35.2958 45.853 35.2771C45.9053 35.2564 45.9617 35.2469 46.018 35.2493H46.0059ZM46.0058 35.9204C46.0461 35.9208 46.0859 35.9124 46.1226 35.8965C46.1572 35.8814 46.1885 35.8596 46.2151 35.8329C46.3189 35.7213 46.3189 35.5472 46.2151 35.4356C46.1885 35.409 46.1572 35.3872 46.1226 35.372C46.0859 35.3561 46.0461 35.3482 46.0058 35.3482C45.9656 35.3486 45.9261 35.3565 45.8891 35.372C45.8529 35.3868 45.8203 35.4082 45.7925 35.4356C45.6887 35.5472 45.6887 35.7213 45.7925 35.8329C45.8203 35.8604 45.8529 35.8818 45.8891 35.8965C45.9298 35.914 45.9736 35.922 46.0179 35.9204H46.0058ZM46.03 35.4479C46.0675 35.4459 46.1045 35.4575 46.1347 35.4797C46.1597 35.4999 46.1733 35.5314 46.171 35.5631C46.1721 35.5898 46.1616 35.6156 46.1428 35.6347C46.1194 35.6557 46.0896 35.668 46.0582 35.6704L46.1749 35.8015H46.0824L45.9737 35.6704H45.9375V35.8015H45.861V35.4519L46.03 35.4479ZM45.9416 35.5156V35.6109H46.0301C46.0458 35.6157 46.0627 35.6157 46.0784 35.6109C46.084 35.5998 46.084 35.5863 46.0784 35.5752C46.084 35.564 46.084 35.5505 46.0784 35.5394C46.0627 35.5346 46.0458 35.5346 46.0301 35.5394L45.9416 35.5156ZM41.5146 33.9019C41.5508 33.2984 42.0636 32.8213 42.6756 32.8213C43.3135 32.8213 43.8387 33.3398 43.8387 33.9695C43.8387 34.5973 43.3176 35.1146 42.6817 35.1178H42.6672C42.0333 35.1178 41.5122 34.6032 41.5122 33.9774C41.5122 33.9524 41.513 33.927 41.5146 33.9019ZM13.2506 35.786V32.0036H12.4134V32.4644C12.1253 32.0985 11.6754 31.8912 11.2061 31.9082C10.1022 31.9082 9.19385 32.8049 9.19385 33.8948C9.19385 34.9846 10.1022 35.8813 11.2061 35.8813C11.6754 35.8984 12.1253 35.691 12.4134 35.3251V35.786H13.2506ZM10.1357 33.9019C10.1719 33.2984 10.6846 32.8213 11.2968 32.8213C11.9346 32.8213 12.4598 33.3398 12.4598 33.9695C12.4598 34.5973 11.9386 35.1146 11.3028 35.1178C11.2951 35.1178 11.2874 35.1182 11.2802 35.1182C10.6464 35.1182 10.1252 34.6032 10.1252 33.9778C10.1252 33.9524 10.126 33.927 10.1276 33.9019H10.1357Z" fill="#A6A6A6"/>
<path fill-rule="evenodd" clip-rule="evenodd" d="M17.1021 25.5504H29.7792V3.05859H17.1021V25.5504Z" fill="#969696"/>
<path fill-rule="evenodd" clip-rule="evenodd" d="M17.907 14.3072C17.9021 9.92043 19.9453 5.76771 23.4407 3.05923C20.8883 1.07907 17.7343 0.00195312 14.4882 0.00195312C6.54021 0.00195312 0 6.45867 0 14.3052C0 22.1516 6.54021 28.6084 14.4882 28.6084C17.7343 28.6084 20.8883 27.5312 23.4407 25.5511C19.9466 22.8434 17.9034 18.6923 17.907 14.3072Z" fill="#777777"/>
<path fill-rule="evenodd" clip-rule="evenodd" d="M46.8833 14.3068C46.8833 22.1533 40.3431 28.6096 32.3951 28.6096C29.1482 28.6096 25.9933 27.5321 23.4407 25.5507C26.9335 22.8406 28.9763 18.6903 28.9763 14.3048C28.9763 9.91928 26.9335 5.76896 23.4407 3.05888C25.9933 1.07752 29.1482 0 32.3951 0C40.3431 0 46.8833 6.45632 46.8833 14.3028V14.3068Z" fill="#B3B3B3"/>
<path fill-rule="evenodd" clip-rule="evenodd" d="M45.499 23.3056V22.7295H45.6881V22.6104H45.2092V22.7295H45.4145V23.3056H45.499ZM46.4286 23.306V22.6108H46.2837L46.1146 23.1074L45.9456 22.6108H45.8168V23.306H45.9215V22.7846L46.0784 23.2365H46.1871L46.344 22.7846V23.311L46.4286 23.306Z" fill="#B3B3B3"/>
</g>
<defs>
<clipPath id="clip0_0_1">
<rect width="1440" height="3621" fill="white" transform="translate(-397 -3537)"/>
</clipPath>
</defs>
</svg>
