<svg width="66" height="20" viewBox="0 0 66 20" fill="none" xmlns="http://www.w3.org/2000/svg">
<rect width="66" height="20" fill="#E5E5E5"/>
<g clip-path="url(#clip0_0_1)">
<rect width="1440" height="3621" transform="translate(-308 -3546)" fill="white"/>
<rect x="-308" y="-53" width="1440" height="128" fill="#F9F9F9"/>
<path d="M25.9484 0L22.8147 19.2H27.8266L30.9628 0H25.9484Z" fill="#A6A6A6"/>
<path d="M18.8177 0.00269568L13.6158 13.1158L13.0612 11.1359C12.0353 8.75019 9.12288 5.32397 5.70367 3.16473L10.4602 19.2L16.0801 19.1906L24.4444 0L18.8177 0.00269568Z" fill="#A6A6A6"/>
<path d="M10.4581 1.61533C10.154 0.404181 9.27263 0.0432056 8.17865 0H0.0672808L0 0.397213C6.31228 1.98328 10.4891 5.80488 12.2222 10.4L10.4581 1.61533Z" fill="#A6A6A6"/>
<path d="M42.7844 4.04754C44.5612 4.02037 45.849 4.39796 46.8491 4.78913L47.3394 5.01324L48.0741 0.813582C46.9985 0.421053 45.3126 0 43.2091 0C37.8426 0 34.0601 2.62818 34.0308 6.39457C33.9959 9.17759 36.7252 10.7314 38.7868 11.6591C40.903 12.6098 41.6125 13.2143 41.6028 14.0632C41.586 15.3603 39.9154 15.9552 38.3552 15.9552C36.1804 15.9552 35.0253 15.6632 33.2416 14.9406L32.5418 14.6309L31.7778 18.9677C33.0488 19.5097 35.394 19.9756 37.8286 20C43.5373 20 47.2472 17.4031 47.2863 13.3786C47.31 11.1769 45.8616 9.49677 42.723 8.11817C40.8234 7.21902 39.6612 6.62139 39.6724 5.71409C39.6724 4.90866 40.6585 4.04754 42.7844 4.04754Z" fill="#A6A6A6"/>
<path fill-rule="evenodd" clip-rule="evenodd" d="M57.3848 0H61.5929L65.9999 19.2H60.9471C60.9471 19.2 60.4456 16.9929 60.2831 16.3223C59.8642 16.3223 58.1105 16.32 56.4593 16.3179C54.9907 16.316 53.6032 16.3142 53.3084 16.3142C53.0969 16.8327 52.1639 19.2 52.1639 19.2H46.4443L54.5313 1.59439C55.1057 0.342039 56.0778 0 57.3848 0ZM57.0459 7.01475C57.0459 7.01475 55.3242 11.2808 54.876 12.3837H59.4007L58.1385 6.837L57.7715 5.18066C57.6338 5.5344 57.4501 5.99351 57.3018 6.36411C57.147 6.7511 57.0308 7.04158 57.0459 7.01475Z" fill="#A6A6A6"/>
</g>
<defs>
<clipPath id="clip0_0_1">
<rect width="1440" height="3621" fill="white" transform="translate(-308 -3546)"/>
</clipPath>
</defs>
</svg>
