<?xml version="1.0" encoding="utf-8"?><svg viewBox="0 0 485 225" xmlns="http://www.w3.org/2000/svg" xmlns:xlink="http://www.w3.org/1999/xlink"><style>:root>svg{display:none}:root>svg:target{display:block}</style><svg viewBox="0 0 485 74" id="apotek" xmlns="http://www.w3.org/2000/svg"><g clip-path="url(#aa)"><path d="M4.07 4.073c-5.427 5.432-5.494 60.355 0 65.854 5.427 5.43 60.303 5.499 65.797 0 5.495-5.5 5.427-60.422 0-65.854-5.29-5.363-60.303-5.499-65.797 0zM61.727 45.08H45.11v16.7H28.692v-16.7H12.006V28.65h16.687v-16.7h16.415v16.7h16.62v16.43z"/><path d="M45.108 11.949H28.693v16.7H12.006v16.43h16.687v16.7h16.415v-16.7h16.62v-16.43h-16.62v-16.7zM485 55.466h-7.122c-2.103 0-3.595-.204-4.477-.95-1.221-1.019-1.086-3.395-1.221-7.06V6.585h-9.904c-3.459 6.177-9.021 7.128-15.94 7.467v6.79c3.798.27 7.936.746 9.428 1.493 0 0 1.696.271 1.9 3.259.881 12.967.746 16.293.339 23.286-.136 2.783-.543 4.956-1.493 5.703-1.153.95-2.848 1.018-4.544 1.018h-6.58v9.844H485v-9.98zM180.773 18.873h-10.379v17.109h10.379c5.291 0 10.107-1.494 10.107-8.35 0-6.45-4.816-8.759-10.107-8.759zm3.663 27.7h-14.042v18.805h-13.769V9.098h27.811c10.242 0 18.518 8.01 18.518 18.262 0 10.251-7.055 19.212-18.518 19.212zm54.74 7.807c-10.107 0-17.433-7.197-17.433-17.108 0-9.912 7.326-17.109 17.433-17.109 10.175 0 17.501 7.197 17.501 17.109 0 9.912-7.326 17.108-17.501 17.108zm0-45.894c-17.093 0-29.982 12.356-29.982 28.786 0 16.429 12.821 28.785 29.847 28.785 19.807 0 30.185-14.46 30.185-28.785 0-16.633-12.685-28.786-30.05-28.786zm32.356.679v11.541h17.772v44.672h12.278V20.706h17.704V9.166h-47.754zM117.689 28.853c1.763 4.006 6.444 14.46 6.444 14.46h-12.481s4.341-10.454 6.037-14.46zm16.415 36.525h12.888l-25.098-56.28h-8.411l-24.148 56.28h12.888s3.527-7.332 5.427-11.745h20.824c2.035 4.413 5.63 11.745 5.63 11.745zm208.584-22.539h23.47v-11.61h-23.47V20.706h24.216V9.166h-36.493v56.212h37.172V53.837h-24.895V42.839zm58.2-7.061c2.781-3.055 24.488-26.68 24.488-26.68h-15.873l-18.044 19.62V9.165h-12.277v56.213h12.277V43.382c5.902 5.702 22.656 21.996 22.656 21.996h17.23s-27.472-26.613-30.457-29.6z"/></g><defs><clipPath id="aa"><path d="M0 0h485v74H0z"/></clipPath></defs></svg><svg viewBox="0 0 222 225" id="blockquote" xmlns="http://www.w3.org/2000/svg"><path opacity=".15" d="M27.1 223.264l.218.349.384-.146 56.416-21.415c6.452-2.077 10.774-5.793 12.878-11.17l.002-.006c2.117-5.645.792-12.048-3.786-19.146-8.58-13.551-13.876-26.973-15.903-40.265-2.033-13.33-2.144-25.629-.341-36.902C79 83.043 82.16 72.891 86.44 64.101c4.518-9.038 8.911-16.019 13.175-20.96 1.404-1.408 2.565-3.157 3.49-5.238.928-2.09 1.399-4.19 1.402-6.298.231-2.355-.242-4.595-1.411-6.709-.966-2.158-2.868-4.033-5.632-5.646l-.003-.002L68.235 1.572l-.296-.179-.272.214C49.495 15.921 34.95 32.057 24.038 50.02l-.002.004C13.356 67.98 6.308 86.737 2.898 106.294c-3.41 19.329-3.183 38.997.681 59.001l.001.005c4.092 20.009 11.934 39.331 23.52 57.964zm116.935 0l.217.349.385-.146 56.416-21.415c6.451-2.077 10.774-5.793 12.878-11.17l.002-.006c2.117-5.645.791-12.048-3.786-19.146-8.581-13.551-13.876-26.973-15.904-40.265-2.032-13.33-2.143-25.629-.341-36.902 2.033-11.52 5.193-21.672 9.473-30.461 4.518-9.038 8.912-16.02 13.176-20.962 1.404-1.407 2.565-3.156 3.49-5.237.928-2.09 1.399-4.19 1.402-6.298.231-2.355-.242-4.595-1.412-6.709-.965-2.158-2.867-4.033-5.631-5.646l-.003-.002L185.17 1.572l-.296-.179-.272.214c-18.172 14.314-32.717 30.45-43.629 48.413l-.002.004c-10.681 17.957-17.728 36.714-21.139 56.27-3.41 19.329-3.182 38.997.682 59.001l.001.005c4.092 20.009 11.934 39.331 23.52 57.964z"/></svg><svg viewBox="0 0 20 15" id="cake" xmlns="http://www.w3.org/2000/svg"><path fill-rule="evenodd" clip-rule="evenodd" d="M3.325 14.102v-1.855a.438.438 0 00.12-.3c0-1.026.836-1.863 1.864-1.863 1.027 0 1.863.837 1.863 1.864a.44.44 0 00.44.441c.016 0 .03-.007.043-.009.015.002.028.01.043.01a.441.441 0 00.44-.442c0-1.027.836-1.864 1.864-1.864 1.026 0 1.863.837 1.863 1.864a.44.44 0 00.441.441c.015 0 .028-.007.043-.009.014.002.027.01.042.01a.44.44 0 00.441-.442c0-1.027.836-1.864 1.863-1.864 1.027 0 1.863.837 1.863 1.864 0 .08.028.153.066.218v1.936h-13.3zm.38-7.282h12.537c.21 0 .381.17.381.382v2.796a2.732 2.732 0 00-1.928-.796c-1 0-1.867.543-2.347 1.342a2.738 2.738 0 00-2.347-1.342c-.998 0-1.866.543-2.346 1.342A2.737 2.737 0 005.31 9.202a2.73 2.73 0 00-1.984.858V7.202a.38.38 0 01.38-.382zm15.802 7.282h-2.001v-6.9c0-.697-.567-1.265-1.264-1.265H12.92V4.184a.44.44 0 00-.257-.398c.432-.48.708-1.104.708-1.8 0-.787-.339-1.49-.873-1.986a2.702 2.702 0 00-.872 1.985c0 .692.273 1.31.699 1.789a.437.437 0 00-.287.41v1.753H7.87V4.184a.441.441 0 00-.257-.399 2.68 2.68 0 00.708-1.8A2.696 2.696 0 007.45 0a2.701 2.701 0 00-.872 1.985c0 .692.272 1.31.698 1.789a.439.439 0 00-.287.41v1.753H3.706c-.696 0-1.264.568-1.264 1.265v6.9h-2a.441.441 0 000 .882h19.065a.44.44 0 100-.882z"/></svg><svg viewBox="0 0 15 15" id="currency" xmlns="http://www.w3.org/2000/svg"><path fill-rule="evenodd" clip-rule="evenodd" d="M7.5 0a7.5 7.5 0 100 15 7.5 7.5 0 000-15zm0 .682A6.826 6.826 0 0114.318 7.5 6.826 6.826 0 017.5 14.318 6.826 6.826 0 01.682 7.5 6.826 6.826 0 017.5.682z"/><path fill-rule="evenodd" clip-rule="evenodd" d="M7.095 11.484v-1.06c-.609-.01-1.239-.2-1.605-.461l.251-.704a2.8 2.8 0 001.512.45c.745 0 1.249-.429 1.249-1.028 0-.577-.41-.934-1.187-1.249-1.07-.42-1.731-.903-1.731-1.815 0-.872.619-1.533 1.585-1.69V2.864h.65v1.02c.63.02 1.06.188 1.365.367l-.262.692a2.546 2.546 0 00-1.323-.356c-.809 0-1.113.482-1.113.902 0 .546.389.819 1.302 1.197 1.081.44 1.627.987 1.627 1.92 0 .83-.577 1.607-1.658 1.785v1.092h-.662z"/></svg><svg viewBox="0 0 9 6" id="down" xmlns="http://www.w3.org/2000/svg"><path d="M8 1L4.5 5 1 1"/></svg><svg viewBox="0 0 92 20" id="klarna" xmlns="http://www.w3.org/2000/svg"><path d="M0 0h92v20H0z"/><g clip-path="url(#fa)"><path d="M-465-3546H975V75H-465z"/><path d="M-465-53H975V75H-465z"/><path fill-rule="evenodd" clip-rule="evenodd" d="M30.912 19.92c-2.107-.41-3.97-1.785-5.034-3.706-.259-.463-.48-1.06-.677-1.83-.213-.822-.183-2.399.069-3.34a8.515 8.515 0 011.056-2.294c.411-.598 1.575-1.667 2.229-2.048 1.33-.777 2.479-1.06 4.068-1 1.247.036 1.94.208 2.966.709.395.194.745.359.783.374.03.014.053-.142.053-.352v-.38h4.183v13.599h-4.183v-.374c0-.202-.023-.374-.045-.374-.03 0-.213.098-.403.21-.411.254-1.18.56-1.803.732-.623.164-2.555.21-3.262.075zm2.737-3.713a4.082 4.082 0 001.719-.972c1.163-1.143 1.369-2.697.547-4.094-.38-.65-1.209-1.286-2.007-1.555-.57-.186-1.848-.186-2.426 0-.639.217-1.414.755-1.794 1.263-.518.688-.67 1.158-.67 2.04 0 .71.008.777.282 1.323a3.73 3.73 0 002.243 1.935c.494.157 1.627.187 2.106.06zm41.027 3.737c-1.324-.232-2.7-.927-3.711-1.89-1.103-1.04-1.81-2.295-2.114-3.73-.168-.791-.168-2.278.007-3.003.654-2.787 2.822-4.91 5.605-5.492 1.688-.359 3.665-.075 5.102.725.251.134.464.246.48.246.015 0 .03-.164.03-.373v-.374h4.182v13.6h-4.182v-.823l-.396.247c-.479.299-1.216.605-1.847.77-.548.142-2.54.209-3.156.097zm2.836-3.804c2.57-.784 3.392-3.81 1.529-5.649-.913-.896-2.22-1.27-3.544-.993-1.833.38-3.126 2.189-2.806 3.915.236 1.27 1.255 2.354 2.593 2.765.525.157 1.642.142 2.228-.038zm10.38 3.744c-.297-.097-.745-.366-1.042-.635a2.52 2.52 0 01-.578-2.937c.913-1.965 3.757-1.995 4.753-.06.167.322.19.471.19 1.121 0 .605-.03.815-.167 1.099-.229.485-.7.963-1.209 1.217-.365.18-.548.217-1.088.24-.357.007-.745-.015-.86-.045zM0 19.727V0h4.639v19.727H0zm11.361-.912c-.373-.508-.7-.949-.73-.994-.167-.21-.89-1.173-1.688-2.242-1.468-1.98-2.015-2.72-2.783-3.736a48.837 48.837 0 01-.898-1.21l-.167-.232.243-.172c.137-.097.29-.209.343-.254.045-.037.433-.328.866-.635.708-.508 2.023-1.696 2.388-2.167 1.628-2.062 2.388-3.982 2.593-6.59L11.574 0h4.471v.717c0 1.936-.692 4.573-1.695 6.456-.388.74-1.095 1.86-1.4 2.242-.448.56-.943 1.143-1.209 1.42l-.32.328.16.232c.084.12.183.24.206.262.023.022.175.224.342.448.16.224.525.717.799 1.083.28.374.935 1.248 1.452 1.943 1.148 1.554 1.87 2.518 1.954 2.616.213.261 1.384 1.89 1.384 1.927 0 .03-1.277.053-2.844.053H12.03l-.669-.912zm7.65.837V0h4.41v19.652h-4.41zm23.726 0v-13.6h4.334V7.63l.441-.366c.677-.575 1.3-.867 2.32-1.098a5.45 5.45 0 01.897-.112h.373v4.012l-.548.038c-.585.037-1.369.299-1.924.65-.456.284-1.072.926-1.308 1.367l-.213.396-.023 3.572-.022 3.564h-4.327zm10.266 0v-13.6h4.106v1.45l.365-.381c.92-.957 2.236-1.442 3.879-1.442 1.802 0 3.338.568 4.425 1.644.647.635.981 1.18 1.3 2.13l.183.522.023 4.842.023 4.835h-4.183l-.022-4.013c-.03-4.012-.03-4.02-.213-4.506a2.587 2.587 0 00-1.286-1.397c-.395-.194-.494-.21-1.338-.21-.867 0-.935.016-1.43.24a2.706 2.706 0 00-1.535 1.846c-.092.35-.115 1.113-.115 4.229v3.81h-4.182z"/></g><defs><clipPath id="fa"><path transform="translate(-465 -3546)" d="M0 0h1440v3621H0z"/></clipPath></defs></svg><svg viewBox="0 0 134 36" id="logo" xmlns="http://www.w3.org/2000/svg"><path d="M0 0h134v36H0z"/><g clip-path="url(#ga)"><path d="M-30-22h1440v3621H-30z"/><path fill-rule="evenodd" clip-rule="evenodd" d="M111.76 18.426a26.45 26.45 0 00.855-1.836c.197-.465.363-.947.498-1.447.166-.583.272-1.06.318-1.429.047-.369.07-.672.07-.91 0-.167-.005-.307-.015-.42a3.277 3.277 0 01-.015-.277c0-.095.054-.205.163-.33a1.84 1.84 0 01.42-.348c.171-.107.36-.197.568-.268.207-.072.404-.107.59-.107h.031c.332 0 .581.02.747.062.166.042.249.164.249.366 0 .429.08.825.241 1.188.161.363.363.714.606 1.053.244.34.508.676.794 1.01.284.333.549.69.793 1.07.243.382.446.795.606 1.242.161.446.241.95.241 1.509 0 .452-.069.842-.21 1.17-.139.327-.272.58-.396.758.321-.154.614-.35.879-.589.264-.238.513-.512.746-.821.146-.194.288-.403.424-.625-.028-.38-.043-.772-.043-1.179 0-.214.008-.536.024-.964.015-.429.034-.87.055-1.321.02-.453.047-.86.077-1.224.032-.363.063-.58.095-.652.177-.321.604-.482 1.281-.482.365 0 .686.033.961.098.276.066.456.194.54.384.042.095.062.375.062.84 0 .261-.005.568-.015.919l-.031 1.09-.032 1.106c-.01.364-.015.688-.015.974 0 .405.01.792.031 1.16.02.37.062.694.124.974.061.28.147.5.255.66.108.16.245.242.411.242.175 0 .363-.078.565-.232.201-.155.41-.364.626-.626.217-.261.436-.568.658-.92.222-.35.441-.723.658-1.115v-.804c0-1.369.011-2.387.031-3.053.021-.667.073-1.072.156-1.215a.904.904 0 01.443-.366c.192-.077.469-.116.832-.116.353 0 .643.033.871.098.228.066.384.194.467.384.021.048.036.31.046.786.011.476.024 1.104.039 1.884.016.78.026 1.667.031 2.66.005.995.008 2.034.008 3.117a15.827 15.827 0 001.765-2.063c.555-.768 1.029-1.657 1.423-2.67a.471.471 0 01.117-.223.218.218 0 01.148-.062c.114 0 .204.137.272.41.067.275.101.578.101.911v.215c0 .166-.016.327-.047.482a1.852 1.852 0 01-.14.429c-.497 1.119-1.065 2.082-1.703 2.892a19.36 19.36 0 01-1.967 2.161 172.489 172.489 0 01-.093 3.464 76.351 76.351 0 01-.156 2.857c-.073 1.083-.264 1.985-.574 2.706-.311.72-.676 1.297-1.094 1.732-.42.434-.859.743-1.32.928-.46.185-.882.277-1.265.277a3.061 3.061 0 01-1.482-.366 3.626 3.626 0 01-1.164-1.01 4.72 4.72 0 01-.753-1.517 6.592 6.592 0 01-.264-1.91c0-.917.15-1.718.45-2.402a7.03 7.03 0 011.194-1.867c.496-.56 1.07-1.08 1.721-1.562s1.329-.985 2.032-1.509l-.062-2.75a8.584 8.584 0 01-.615.857 4.637 4.637 0 01-.731.724c-.264.208-.55.375-.855.5a2.586 2.586 0 01-.988.187c-.549 0-1.024-.154-1.423-.464-.399-.31-.731-.738-.995-1.286a6.343 6.343 0 01-.373-.985 8.19 8.19 0 01-.864 1.057c-.446.464-.967.86-1.563 1.187-.596.327-1.273.491-2.029.491-.654 0-1.188-.056-1.603-.17-.414-.113-.743-.243-.987-.392-.244-.149-.418-.295-.521-.438a8.587 8.587 0 01-.202-.285c-.052-.096-.091-.253-.117-.474a5.559 5.559 0 01-.039-.651c0-.203.011-.376.031-.518.021-.143.062-.215.125-.215.062 0 .145.039.249.116.103.078.228.167.373.268.145.102.308.19.49.268a1.5 1.5 0 00.598.116c.239 0 .462-.053.669-.16.208-.108.384-.25.529-.429a2.04 2.04 0 00.342-.634 2.34 2.34 0 00.125-.76c0-.451-.086-.835-.257-1.151a5.293 5.293 0 00-.63-.91 120.46 120.46 0 00-.793-.92 5.285 5.285 0 01-.746-1.143 8.551 8.551 0 01-.078.286 4.805 4.805 0 01-.078.303 7.614 7.614 0 00-.093.358 7.542 7.542 0 01-.226.731c-.109.31-.233.643-.373 1-.14.358-.296.718-.467 1.08-.034.075-.069.147-.103.218a2.18 2.18 0 01-.044.114c-.073.166-.174.392-.304.678-.129.285-.285.592-.467.92-.181.327-.391.658-.629.99a5.921 5.921 0 01-.793.903c-.29.267-.61.485-.957.651-.347.167-.723.25-1.127.25-.498 0-.921-.125-1.268-.375s-.635-.613-.863-1.09a5.46 5.46 0 01-1.524 1.064 4.228 4.228 0 01-1.82.401 4.76 4.76 0 01-1.975-.42 4.988 4.988 0 01-1.617-1.151 5.604 5.604 0 01-1.079-1.69l-.08.136a7.88 7.88 0 01-1.112 1.447c-.446.464-.967.86-1.563 1.187-.596.327-1.273.491-2.03.491-1.026 0-1.894-.181-2.605-.544-.71-.363-1.283-.813-1.718-1.349a5.239 5.239 0 01-.949-1.74c-.197-.626-.295-1.206-.295-1.742 0-.738.135-1.434.404-2.09a5.63 5.63 0 011.088-1.713 5 5 0 011.618-1.152c.622-.28 1.28-.42 1.975-.42.519 0 1.004.08 1.454.241.452.16.845.387 1.182.679.337.291.604.643.802 1.053.196.411.295.873.295 1.384 0 .536-.101 1.012-.303 1.429a3.144 3.144 0 01-.817 1.053 3.47 3.47 0 01-1.19.643c-.45.143-.925.215-1.423.215a4.83 4.83 0 01-1.003-.108 6.197 6.197 0 01-1.003-.303c.145.703.448 1.22.91 1.553.461.334.987.5 1.578.5.633 0 1.19-.098 1.673-.294a4.166 4.166 0 001.298-.84c.384-.362.733-.8 1.05-1.312.118-.192.235-.392.35-.599.01-.708.144-1.377.404-2.008a5.633 5.633 0 011.089-1.715 4.999 4.999 0 011.617-1.151 4.76 4.76 0 011.975-.42c.519 0 1.011.084 1.478.25a4.83 4.83 0 011.291.696c.031-.25.067-.404.108-.464a.956.956 0 01.335-.366c.129-.077.376-.116.739-.116.352 0 .642.033.871.098.228.066.383.194.466.384.042.096.062.375.062.84 0 .262-.005.568-.015.919l-.031 1.09-.031 1.106c-.011.364-.016.688-.016.974 0 .405.01.792.031 1.16.021.37.062.694.125.974.062.28.147.5.256.66.109.16.246.242.412.242.239 0 .49-.122.754-.367.265-.243.537-.565.817-.964.272-.388.542-.826.809-1.315zm15.708 10.36v-1.161c0-.429-.01-.88-.031-1.357-.475.369-.916.73-1.324 1.08a8.268 8.268 0 00-1.068 1.099c-.305.38-.542.794-.712 1.24a4.188 4.188 0 00-.255 1.51c0 .142.023.33.069.562.046.232.131.455.255.67a1.8 1.8 0 00.504.553c.211.154.477.232.797.232.568 0 1.004-.387 1.308-1.16.304-.774.457-1.863.457-3.268zM37.86 19.99c-.014-.244-.03-.502-.044-.776a199.282 199.282 0 01-.272-10.732 109.088 109.088 0 01.116-4.964c.036-.726.075-1.342.116-1.848.04-.506.087-.819.139-.938a1 1 0 01.24-.214c.118-.083.247-.164.386-.241.14-.078.279-.143.418-.197a.988.988 0 01.317-.08c.124 0 .248.024.372.071.124.048.237.105.34.17.103.066.19.134.263.206a.65.65 0 01.14.178c.03.132.064.604.1 1.42.036.815.054 1.902.054 3.259 0 .762-.007 1.601-.022 2.518-.014.916-.031 1.863-.05 2.839-.02.976-.044 1.961-.074 2.955-.029.995-.058 1.955-.087 2.884a12 12 0 01.785-1.374 6.918 6.918 0 011.05-1.251c.394-.369.837-.67 1.33-.901a3.794 3.794 0 011.64-.35 2.9 2.9 0 011.167.224c.342.15.633.354.871.616a2.7 2.7 0 01.544.911c.125.345.187.714.187 1.107a5.007 5.007 0 01-.42 1.75 6.095 6.095 0 01-.397.75c-.16.262-.36.518-.598.768-.239.25-.519.491-.84.723a5.64 5.64 0 01-1.12.616c0 .013.034.063.101.152.067.09.166.188.296.295.13.107.292.205.49.295.196.089.42.134.668.134.57 0 1.081-.102 1.532-.304a4.277 4.277 0 001.302-.912l-.003-.008c-.197-.625-.295-1.205-.295-1.741 0-.738.134-1.434.404-2.09a5.628 5.628 0 011.088-1.713 4.998 4.998 0 011.618-1.152 4.76 4.76 0 011.975-.42c.519 0 1.004.08 1.454.241.452.16.845.387 1.182.679.337.291.604.643.801 1.053.197.411.296.873.296 1.384 0 .536-.101 1.012-.303 1.429a3.144 3.144 0 01-.817 1.053c-.342.286-.739.5-1.19.643-.45.143-.925.215-1.423.215a4.83 4.83 0 01-1.003-.108 6.198 6.198 0 01-1.003-.303c.145.703.448 1.22.91 1.553.46.334.987.5 1.578.5.633 0 1.19-.098 1.672-.294a4.165 4.165 0 001.299-.84 6.5 6.5 0 001.05-1.312 17.02 17.02 0 00.91-1.697c.051-.107.093-.18.124-.223.03-.041.078-.062.14-.062.114 0 .204.137.272.41.067.274.101.578.101.911 0 .203-.01.405-.031.608-.02.202-.073.374-.156.518-.155.345-.38.767-.676 1.267a7.87 7.87 0 01-1.112 1.447c-.446.464-.967.86-1.564 1.187-.596.327-1.272.491-2.029.491-1.026 0-1.895-.181-2.605-.544-.71-.363-1.283-.813-1.718-1.349a6.787 6.787 0 01-.11-.139 9.24 9.24 0 01-.318.354 6.27 6.27 0 01-1.563 1.187c-.601.327-1.28.491-2.037.491a4.485 4.485 0 01-1.587-.41 7.415 7.415 0 01-.692-.393 4.509 4.509 0 01-.723-.581 6.217 6.217 0 01-.7-.821 7.235 7.235 0 01-.638-1.08c.063-.036.197-.107.405-.215.207-.107.45-.241.73-.402.28-.16.573-.348.88-.563.305-.213.588-.448.847-.705.26-.255.474-.53.646-.821.17-.291.256-.598.256-.92 0-.333-.09-.613-.272-.839-.181-.226-.474-.34-.879-.34-.519 0-1.005.215-1.462.644-.456.428-.86.976-1.213 1.642a11.76 11.76 0 00-.886 2.242c-.239.827-.4 1.64-.482 2.437a2.632 2.632 0 00-.032.375v.34a.417.417 0 01-.202.231c-.103.06-.212.102-.326.126a1.781 1.781 0 01-.452.053c-.155 0-.295-.018-.42-.053a1 1 0 01-.318-.126.42.42 0 01-.194-.232c-.008-.008-.03-.2-.066-.576l-.09.086a3.88 3.88 0 01-.957.651c-.347.167-.723.25-1.127.25-.498 0-.92-.125-1.268-.375-.347-.25-.635-.613-.863-1.09a5.457 5.457 0 01-1.524 1.064 4.23 4.23 0 01-1.82.401c-.694 0-1.353-.14-1.975-.42a4.98 4.98 0 01-1.617-1.151 5.6 5.6 0 01-1.262-2.2 8.255 8.255 0 01-.648.5c-.41.295-.936.63-1.575 1.005-.639.375-1.376.761-2.211 1.157a26.53 26.53 0 01-2.695 1.093 23.8 23.8 0 01-3.023.82 16.042 16.042 0 01-3.205.32 18.09 18.09 0 01-3.164-.272 14.06 14.06 0 01-2.89-.828 11.422 11.422 0 01-2.478-1.39 8.855 8.855 0 01-1.938-1.969 8.96 8.96 0 01-1.26-2.563C.149 16.523 0 15.473 0 14.327s.203-2.271.609-3.375c.406-1.104.977-2.15 1.714-3.142A15.55 15.55 0 014.97 5.062a17.52 17.52 0 013.387-2.17 19.367 19.367 0 013.947-1.422c1.4-.343 2.847-.515 4.34-.515.616 0 1.224.038 1.826.113.602.075 1.178.188 1.729.338.55.15 1.059.34 1.525.57.467.23.873.5 1.218.811.345.311.616.665.812 1.061.196.397.294.836.294 1.318 0 .525-.1 1.01-.3 1.455a4.33 4.33 0 01-.806 1.197 5.38 5.38 0 01-1.169.924 8.37 8.37 0 01-1.385.66c-.48.176-.968.31-1.463.4a7.805 7.805 0 01-1.413.137c-.337 0-.651-.013-.945-.04a6.014 6.014 0 01-.763-.112 1.76 1.76 0 01-.511-.185c-.126-.075-.19-.166-.19-.273 0-.182.057-.383.169-.603.112-.22.247-.372.406-.458.037-.01.182-.021.433-.032.253-.01.556-.04.91-.089.355-.048.733-.123 1.134-.225a4.425 4.425 0 001.12-.45c.345-.198.63-.455.854-.771.224-.316.336-.704.336-1.165 0-.236-.07-.476-.21-.723-.14-.247-.364-.469-.672-.667-.308-.198-.712-.362-1.21-.49-.5-.129-1.113-.193-1.841-.193-.906 0-1.839.11-2.8.329-.961.22-1.899.541-2.813.964-.915.424-1.778.943-2.59 1.56a11.335 11.335 0 00-2.134 2.113 9.932 9.932 0 00-1.45 2.62 8.783 8.783 0 00-.531 3.085c0 .3.028.707.084 1.221a8.032 8.032 0 001.225 3.424c.378.6.889 1.143 1.532 1.63.644.489 1.442.885 2.394 1.19.952.306 2.1.458 3.443.458 1.017 0 2.037-.112 3.059-.337a23.773 23.773 0 002.939-.844 28.21 28.21 0 002.632-1.093 42.27 42.27 0 002.141-1.093 35.674 35.674 0 001.648-.957c.029-.64.161-1.247.398-1.822a5.618 5.618 0 011.089-1.715 4.992 4.992 0 011.617-1.151 4.76 4.76 0 011.975-.42c.519 0 1.012.084 1.478.25a4.82 4.82 0 011.29.696c.032-.25.068-.404.11-.464a.952.952 0 01.334-.366c.13-.077.376-.116.739-.116.352 0 .643.033.87.098.228.066.384.194.467.384.041.096.062.375.062.84 0 .262-.005.568-.015.919l-.032 1.09-.03 1.106c-.011.364-.016.688-.016.974 0 .405.01.792.03 1.16.022.37.063.694.125.974.063.28.148.5.257.66.109.16.246.242.412.242.239 0 .49-.122.755-.367.206-.19.419-.43.635-.715zM70.776 6.105c.63-.08 1.476-.163 2.538-.248a71.833 71.833 0 01.14-3.375c.031-.464.065-.85.101-1.16.036-.31.07-.506.101-.59.052-.06.137-.13.256-.214a3.93 3.93 0 01.825-.437.987.987 0 01.319-.081c.124 0 .249.024.373.071.124.048.239.105.342.17a1.3 1.3 0 01.257.206.433.433 0 01.117.178c.051.132.09.604.116 1.42.026.815.039 1.902.039 3.259v.41c.384-.023.775-.035 1.175-.035h1.251c.197 0 .446.006.747.018l.972.035a33.361 33.361 0 012.792.215c.207.024.336.053.388.089.042.048.088.134.14.259.052.125.101.259.148.402.047.142.085.286.117.428.03.143.046.256.046.34 0 .238-.051.467-.155.687-.104.22-.182.36-.234.42a3.576 3.576 0 01-.427.044 55.5 55.5 0 01-.84.054c-.316.018-.63.03-.941.035-.311.006-.55.01-.715.01a110.028 110.028 0 01-4.495-.107c-.01.702-.031 1.425-.062 2.169a321.555 321.555 0 00-.156 4.464c-.02.732-.031 1.432-.031 2.098v1.322c0 .333.01.649.031.946.021.298.06.554.117.768.056.215.13.384.218.51.088.124.2.186.334.186.228 0 .477-.121.746-.366.27-.243.542-.565.817-.964.275-.399.55-.85.824-1.357a27.8 27.8 0 00.786-1.563c.093-.19.181-.285.264-.285.114 0 .21.137.288.41.078.274.116.578.116.911 0 .203-.015.405-.046.608a2.102 2.102 0 01-.14.518l-.296.678a10.97 10.97 0 01-.458.92 10.43 10.43 0 01-.63.99 5.885 5.885 0 01-.793.903 3.943 3.943 0 01-.95.651 2.48 2.48 0 01-1.103.25 1.48 1.48 0 01-1.105-.464c-.3-.31-.55-.7-.746-1.17a8.115 8.115 0 01-.382-1.158 10.09 10.09 0 01-.63.988 5.857 5.857 0 01-.792.902c-.29.268-.61.486-.956.652a2.57 2.57 0 01-1.128.25c-.55 0-1.016-.154-1.4-.464-.383-.31-.697-.738-.94-1.286-.245-.547-.423-1.193-.537-1.937a16.014 16.014 0 01-.171-2.42 59.1 59.1 0 01.062-2.285c.02-.453.046-.86.078-1.224.03-.363.067-.58.109-.652a.824.824 0 01.435-.366c.197-.077.477-.116.84-.116.352 0 .643.033.87.098.229.066.384.194.468.384.04.095.061.375.061.84 0 .261-.005.568-.015.919l-.031 1.09-.031 1.106c-.01.364-.016.688-.016.974 0 .405.01.792.031 1.16.021.37.062.694.125.974.062.28.148.5.256.66.11.16.247.242.413.242.217 0 .461-.122.73-.367.27-.243.545-.565.825-.964a14.993 14.993 0 00.961-1.58c-.023-.27-.037-.51-.044-.723-.01-.34-.016-.533-.016-.58a231.051 231.051 0 01-.14-3.769 156.008 156.008 0 01-.062-4.607v-.036a67.237 67.237 0 01-2.276-.14 2.523 2.523 0 01-.468.9 1.907 1.907 0 01-.599.49 1.562 1.562 0 01-.731.179h-.062c-.26-.012-.5-.08-.723-.205a1.878 1.878 0 01-.576-.5 2.319 2.319 0 01-.373-.741 3.147 3.147 0 01-.132-.929v-.107c.01-.333.064-.64.163-.92a2.41 2.41 0 01.404-.732 1.85 1.85 0 01.591-.482c.223-.113.459-.17.708-.17h.093c.26.013.5.08.723.206.223.125.415.295.576.509.07.093.134.193.19.3zM32.816 16.74a2.659 2.659 0 00-.488-.884 2.305 2.305 0 00-.798-.598c-.32-.149-.698-.223-1.132-.223-.29 0-.56.078-.814.232a2.273 2.273 0 00-.666.634 3.19 3.19 0 00-.45.938 3.982 3.982 0 00-.163 1.16c0 .405.055.786.163 1.143.109.357.258.67.45.937a2.4 2.4 0 00.666.644c.253.16.524.24.814.24.455 0 .845-.077 1.17-.232a2.23 2.23 0 00.806-.634 2.68 2.68 0 00.473-.946c.103-.363.155-.747.155-1.152v-.178a3.695 3.695 0 00-.186-1.08zm72.91 0a2.66 2.66 0 00-.488-.884 2.298 2.298 0 00-.799-.598c-.32-.149-.697-.223-1.131-.223-.29 0-.561.078-.814.232a2.295 2.295 0 00-.667.634c-.191.268-.341.58-.449.938a3.958 3.958 0 00-.163 1.16c0 .405.054.786.163 1.143.108.357.258.67.449.937.192.268.414.482.667.644.253.16.524.24.814.24.454 0 .845-.077 1.17-.232a2.23 2.23 0 00.806-.634 2.68 2.68 0 00.473-.946c.103-.363.155-.747.155-1.152v-.178a3.709 3.709 0 00-.186-1.08zm-50.67-.384c0-.25-.04-.458-.117-.625a1.212 1.212 0 00-.303-.41 1.053 1.053 0 00-.436-.224 2.097 2.097 0 00-.513-.062c-.26 0-.508.069-.747.205a2.36 2.36 0 00-.645.554 3 3 0 00-.474.821 3.594 3.594 0 00-.234 1.009c.114.06.262.101.444.125.181.024.376.036.583.036.27 0 .547-.024.832-.072.285-.047.547-.127.785-.24a1.73 1.73 0 00.591-.447c.156-.185.234-.408.234-.67zm39.674 0c0-.25-.039-.458-.117-.625a1.21 1.21 0 00-.303-.41 1.053 1.053 0 00-.436-.224 2.096 2.096 0 00-.513-.062c-.259 0-.508.069-.746.205a2.359 2.359 0 00-.645.554 3.01 3.01 0 00-.475.821 3.59 3.59 0 00-.233 1.009c.114.06.261.101.443.125.181.024.376.036.583.036.27 0 .547-.024.832-.072.285-.047.547-.127.786-.24a1.73 1.73 0 00.59-.447c.156-.185.234-.408.234-.67z"/></g><defs><clipPath id="ga"><path transform="translate(-30 -22)" d="M0 0h1440v3621H0z"/></clipPath></defs></svg><svg viewBox="0 0 47 36" id="mastercard" xmlns="http://www.w3.org/2000/svg"><path d="M0 0h47v36H0z"/><g clip-path="url(#ha)"><path d="M-397-3537h1440V84H-397z"/><path d="M-397-44h1440V84H-397z"/><path fill-rule="evenodd" clip-rule="evenodd" d="M8.53 35.801v-2.384a1.43 1.43 0 00-1.513-1.51 1.497 1.497 0 00-1.353.676 1.42 1.42 0 00-1.271-.676c-.45-.022-.88.193-1.127.565v-.47h-.837v3.8h.845v-2.09a.9.9 0 01.942-1.01c.555 0 .837.358.837 1.001v2.114h.845v-2.106a.904.904 0 01.942-1.01c.571.001.845.359.845 1.002v2.114l.845-.016zm12.504-3.798h-1.376V30.85h-.846v1.152h-.764v.755h.78v1.748c0 .882.347 1.406 1.337 1.406.37.002.732-.1 1.046-.294l-.241-.707c-.225.132-.48.206-.74.215-.403 0-.556-.255-.556-.636v-1.732h1.368l-.008-.755zm7.14-.096a1.14 1.14 0 00-1.015.557v-.461h-.829V35.8h.837v-2.13c0-.627.274-.977.805-.977.18-.002.357.03.523.096l.258-.795a1.808 1.808 0 00-.596-.103l.016.015zm-10.794.398a2.907 2.907 0 00-1.57-.397c-.974 0-1.61.46-1.61 1.216 0 .62.467 1 1.328 1.12l.403.056c.459.063.676.182.676.397 0 .294-.306.46-.877.46-.46.014-.91-.126-1.28-.396l-.403.643a2.802 2.802 0 001.667.493c1.11 0 1.754-.517 1.754-1.24s-.507-1.017-1.344-1.136l-.402-.056c-.363-.047-.652-.119-.652-.373s.273-.445.732-.445a2.5 2.5 0 011.207.326l.37-.668zm22.42-.398a1.14 1.14 0 00-1.014.557v-.461h-.83V35.8h.838v-2.13c0-.627.274-.977.805-.977.179-.002.357.03.523.096l.258-.795a1.81 1.81 0 00-.596-.103l.016.015zm-10.786 1.987v.071c0 1.052.877 1.919 1.943 1.919.037 0 .073-.001.11-.003.502.025.997-.136 1.384-.453l-.402-.668c-.29.218-.642.338-1.006.342a1.23 1.23 0 01-1.136-1.216 1.23 1.23 0 011.136-1.215c.364.004.716.123 1.006.341l.402-.667a2.028 2.028 0 00-1.384-.453 2.119 2.119 0 00-.11-.003c-1.067 0-1.944.866-1.944 1.919l.001.07v.016zm7.84 1.892v-3.782h-.837v.46a1.47 1.47 0 00-1.207-.556c-1.104 0-2.012.897-2.012 1.987s.908 1.986 2.012 1.986c.47.017.919-.19 1.207-.556v.461h.837zm-3.115-1.892a1.162 1.162 0 011.161-1.08 1.16 1.16 0 011.163 1.148 1.16 1.16 0 01-1.157 1.148h-.014a1.153 1.153 0 01-1.153-1.216zm-10.101-1.986c-1.093.015-1.984.907-1.984 1.987 0 1.09.908 1.986 2.012 1.986h.028a2.358 2.358 0 001.598-.516l-.402-.612a1.847 1.847 0 01-1.12.397 1.068 1.068 0 01-1.15-.93h2.857v-.317c0-1.192-.748-1.987-1.827-1.987l-.012-.008zm0 .739h.02c.516 0 .943.413.954.922H22.6a.99.99 0 011.022-.922h.016zm20.971 3.139v-5.309h-.805v1.987a1.47 1.47 0 00-1.207-.556c-1.104 0-2.012.897-2.012 1.986 0 1.09.908 1.987 2.012 1.987.47.017.92-.19 1.207-.556v.46h.805zm1.397-.537a.402.402 0 01.278.107.366.366 0 010 .532.405.405 0 01-.125.08.382.382 0 01-.153.032.403.403 0 01-.362-.23.37.37 0 01.209-.493.402.402 0 01.165-.028h-.012zm0 .671a.287.287 0 00.21-.087.292.292 0 000-.397.294.294 0 00-.326-.064.297.297 0 00-.098.064.292.292 0 000 .397.303.303 0 00.226.087h-.012zm.024-.472a.163.163 0 01.105.032c.025.02.038.051.036.083a.097.097 0 01-.028.072.143.143 0 01-.085.035l.117.131h-.093l-.108-.13h-.036v.13h-.077v-.35l.169-.003zm-.088.068v.095h.088a.083.083 0 00.048 0 .04.04 0 000-.036.04.04 0 000-.036.083.083 0 00-.048 0l-.088-.023zm-4.427-1.614a1.162 1.162 0 011.16-1.08c.639 0 1.164.518 1.164 1.147a1.16 1.16 0 01-1.157 1.149h-.015a1.153 1.153 0 01-1.152-1.216zM13.25 35.786v-3.782h-.838v.46a1.47 1.47 0 00-1.207-.556c-1.104 0-2.012.897-2.012 1.987s.908 1.986 2.012 1.986c.47.017.92-.19 1.207-.556v.461h.838zm-3.115-1.884a1.162 1.162 0 011.16-1.08c.639 0 1.164.518 1.164 1.147 0 .628-.521 1.146-1.157 1.149h-.023a1.153 1.153 0 01-1.152-1.216h.008zM17.102 25.55H29.78V3.06H17.102v22.49z"/><path fill-rule="evenodd" clip-rule="evenodd" d="M17.907 14.307c-.005-4.387 2.038-8.54 5.534-11.248A14.612 14.612 0 0014.488.002C6.54.002 0 6.459 0 14.305c0 7.847 6.54 14.303 14.488 14.303 3.246 0 6.4-1.077 8.953-3.057-3.494-2.708-5.538-6.859-5.534-11.244zM46.883 14.307c0 7.846-6.54 14.303-14.488 14.303a14.61 14.61 0 01-8.954-3.06c3.492-2.71 5.535-6.86 5.535-11.245 0-4.386-2.043-8.536-5.535-11.246A14.61 14.61 0 0132.395 0c7.948 0 14.488 6.456 14.488 14.303v.004zm-1.384 8.999v-.576h.19v-.12h-.48v.12h.205v.576h.085zm.93 0v-.695h-.145l-.17.496-.168-.496h-.13v.695h.105v-.521l.157.451h.11l.156-.451v.526l.085-.005z"/></g><defs><clipPath id="ha"><path transform="translate(-397 -3537)" d="M0 0h1440v3621H0z"/></clipPath></defs></svg><svg viewBox="0 0 16 15" id="stars" xmlns="http://www.w3.org/2000/svg"><path fill-rule="evenodd" clip-rule="evenodd" d="M5.816 1.537l-1.362 2.49A4.94 4.94 0 012.49 5.99L0 7.353l2.49 1.361a4.941 4.941 0 011.964 1.964l1.362 2.49 1.361-2.49a4.942 4.942 0 011.964-1.964l2.49-1.361-2.49-1.362a4.94 4.94 0 01-1.964-1.964l-1.361-2.49zm0 1.505l.728 1.331a5.646 5.646 0 002.25 2.251l1.332.729-1.332.728a5.65 5.65 0 00-2.25 2.25l-.728 1.332-.73-1.331a5.65 5.65 0 00-2.25-2.251l-1.33-.728 1.33-.729a5.646 5.646 0 002.25-2.25l.73-1.332zm5.926 6.833l-.547 1.003a1.992 1.992 0 01-.79.79l-1.003.548 1.002.548c.334.182.608.457.79.79l.548 1.002.548-1.002c.183-.334.458-.608.79-.79l1.003-.548-1.002-.548a1.996 1.996 0 01-.79-.79l-.549-1.003zm0 1.494c.217.343.504.63.847.847-.343.216-.63.504-.847.846a2.709 2.709 0 00-.846-.846c.343-.216.63-.504.846-.847zM12.364 0l-.776 1.417c-.257.472-.645.86-1.117 1.118l-1.417.775 1.417.775c.472.258.86.646 1.117 1.117l.776 1.418.775-1.418a2.82 2.82 0 011.118-1.117l1.417-.775-1.417-.775a2.808 2.808 0 01-1.118-1.118L12.364 0zm0 1.505l.141.26a3.53 3.53 0 001.405 1.404l.259.141-.26.141a3.53 3.53 0 00-1.404 1.405l-.141.259-.142-.259a3.53 3.53 0 00-1.404-1.405l-.26-.14.26-.142a3.53 3.53 0 001.404-1.405l.142-.259z"/></svg><svg viewBox="0 0 66 20" id="visa" xmlns="http://www.w3.org/2000/svg"><path d="M0 0h66v20H0z"/><g clip-path="url(#ja)"><path d="M-308-3546h1440V75H-308z"/><path d="M-308-53h1440V75H-308z"/><path d="M25.948 0l-3.133 19.2h5.012L30.963 0h-5.015zm-7.13.003l-5.202 13.113-.555-1.98C12.035 8.75 9.123 5.324 5.704 3.165L10.46 19.2l5.62-.01L24.444 0l-5.626.003z"/><path d="M10.458 1.615C10.154.405 9.273.043 8.178 0H.069L0 .397C6.312 1.983 10.49 5.805 12.222 10.4l-1.764-8.785zm32.326 2.433c1.777-.028 3.065.35 4.065.741l.49.224.735-4.2C47 .422 45.313 0 43.21 0c-5.366 0-9.149 2.628-9.178 6.395-.035 2.783 2.694 4.336 4.756 5.264 2.116.95 2.825 1.555 2.816 2.404-.017 1.297-1.688 1.892-3.248 1.892-2.175 0-3.33-.292-5.113-1.014l-.7-.31-.764 4.337c1.27.542 3.616 1.008 6.05 1.032 5.71 0 9.42-2.597 9.458-6.621.024-2.202-1.424-3.882-4.563-5.26-1.9-.9-3.062-1.498-3.05-2.405 0-.805.985-1.666 3.111-1.666z"/><path fill-rule="evenodd" clip-rule="evenodd" d="M57.385 0h4.208L66 19.2h-5.053s-.501-2.207-.664-2.878l-3.824-.004-3.15-.004c-.212.519-1.145 2.886-1.145 2.886h-5.72l8.087-17.606C55.106.342 56.078 0 57.385 0zm-.34 7.015s-1.72 4.266-2.169 5.369h4.525l-1.263-5.547-.366-1.656c-.138.353-.322.813-.47 1.183-.155.387-.271.678-.256.65z"/></g><defs><clipPath id="ja"><path transform="translate(-308 -3546)" d="M0 0h1440v3621H0z"/></clipPath></defs></svg><svg viewBox="0 0 83 21" id="vpps" xmlns="http://www.w3.org/2000/svg"><path d="M0 0h83v21H0z"/><g clip-path="url(#ka)"><path d="M-206-3547h1440V74H-206z"/><path d="M-206-54h1440V74H-206z"/><path d="M4.168 0l3.576 10.346L11.293 0h4.168L9.276 15.346H6.184L0 0h4.168z"/><path fill-rule="evenodd" clip-rule="evenodd" d="M27.604 6.59c1.138 0 2.113-.855 2.113-2.084s-.975-2.083-2.113-2.083c-1.137 0-2.112.854-2.112 2.083s.975 2.084 2.112 2.084zm2.763 3.366c-1.409 1.816-2.898 3.072-5.525 3.072-2.682 0-4.767-1.603-6.392-3.954-.65-.961-1.652-1.175-2.383-.668-.677.481-.84 1.496-.217 2.377 2.248 3.394 5.362 5.37 8.992 5.37 3.33 0 5.93-1.602 7.962-4.273.758-.99.731-2.005 0-2.565-.677-.534-1.679-.348-2.437.641zm8.428-7.437V.424H34.99V21h3.805v-7.318c1.267 1.698 2.913 2.413 4.775 2.413 3.48 0 6.881-2.704 6.881-8.273 0-5.33-3.535-7.822-6.557-7.822-2.401 0-4.048 1.087-5.1 2.519zm3.884 10.262c-2.05 0-3.884-1.645-3.884-4.773 0-3.261 1.834-4.72 3.912-4.72 1.915 0 3.913 1.537 3.913 4.72 0 3.235-1.998 4.773-3.94 4.773zM57.51 2.519V.424h-3.804V21h3.804v-7.318c1.269 1.698 2.915 2.413 4.776 2.413 3.48 0 6.88-2.704 6.88-8.273C69.167 2.492 65.633 0 62.61 0c-2.401 0-4.047 1.087-5.1 2.519zm3.886 10.262c-2.05 0-3.886-1.645-3.886-4.773 0-3.261 1.836-4.72 3.913-4.72 1.916 0 3.912 1.537 3.912 4.72 0 3.235-1.996 4.773-3.94 4.773z"/><path d="M76.948 0C79.923 0 82.102 1.437 83 5.057l-3.257.532c-.051-1.837-1.154-2.396-2.718-2.396-1.23 0-2.128.56-2.128 1.438 0 .691.462 1.41 1.846 1.676l2.487.48c2.436.479 3.745 2.128 3.745 4.39 0 3.327-2.898 4.977-5.617 4.977-2.871 0-6.051-1.544-6.564-5.296l3.257-.532c.179 1.942 1.333 2.634 3.18 2.634 1.41 0 2.358-.532 2.358-1.463 0-.825-.435-1.437-1.974-1.73l-2.256-.426c-2.385-.452-3.847-2.209-3.847-4.445 0-3.46 3.025-4.896 5.436-4.896z"/></g><defs><clipPath id="ka"><path transform="translate(-206 -3547)" d="M0 0h1440v3621H0z"/></clipPath></defs></svg></svg>