<svg width="15" height="15" viewBox="0 0 15 15" fill="none" xmlns="http://www.w3.org/2000/svg">
<path fill-rule="evenodd" clip-rule="evenodd" d="M7.5 -0.00012207C3.35795 -0.00012207 0 3.35783 0 7.49988C0 11.6419 3.35795 14.9999 7.5 14.9999C11.642 14.9999 15 11.6419 15 7.49988C15 3.35783 11.642 -0.00012207 7.5 -0.00012207ZM7.5 0.681696C11.2595 0.681696 14.3182 3.74033 14.3182 7.49988C14.3182 11.2594 11.2595 14.3181 7.5 14.3181C3.74045 14.3181 0.681818 11.2594 0.681818 7.49988C0.681818 3.74033 3.74045 0.681696 7.5 0.681696Z" fill="#00DAC7"/>
<path fill-rule="evenodd" clip-rule="evenodd" d="M7.09521 11.4843V10.4241C6.48635 10.4139 5.85635 10.2243 5.48953 9.96252L5.74112 9.25889C6.11885 9.51048 6.66499 9.70957 7.25271 9.70957C7.99794 9.70957 8.50181 9.28002 8.50181 8.68139C8.50181 8.10389 8.09203 7.7473 7.31544 7.4323C6.24499 7.0123 5.58362 6.52889 5.58362 5.61661C5.58362 4.74457 6.20271 4.08389 7.16885 3.92639V2.86548H7.81931V3.8848C8.44931 3.90525 8.87953 4.07298 9.18431 4.25161L8.92181 4.94434C8.7009 4.81889 8.27067 4.58775 7.59908 4.58775C6.79044 4.58775 6.48635 5.07048 6.48635 5.49048C6.48635 6.03593 6.87499 6.30866 7.78794 6.68707C8.86931 7.12752 9.41476 7.67366 9.41476 8.60775C9.41476 9.43752 8.83794 10.2141 7.75658 10.3921V11.4843H7.09521Z" fill="#00DAC7"/>
</svg>
