<svg width="16" height="15" viewBox="0 0 16 15" fill="none" xmlns="http://www.w3.org/2000/svg">
<path fill-rule="evenodd" clip-rule="evenodd" d="M5.81578 1.53723L4.45356 4.02668C4.00023 4.85612 3.31912 5.53723 2.49023 5.99112L0.000228882 7.35279L2.49023 8.71445C3.31912 9.16779 4.00023 9.84945 4.45356 10.6778L5.81578 13.1683L7.17745 10.6778C7.63078 9.84945 8.3119 9.16779 9.14078 8.71445L11.6313 7.35279L9.14078 5.99112C8.3119 5.53723 7.63078 4.85612 7.17745 4.02668L5.81578 1.53723ZM5.81578 3.04223L6.54412 4.37334C7.06412 5.32556 7.84245 6.1039 8.79412 6.62445L10.1263 7.35279L8.79412 8.08056C7.84245 8.60168 7.06412 9.37945 6.54412 10.3317L5.81578 11.6633L5.0869 10.3317C4.5669 9.37945 3.78856 8.60168 2.8369 8.08056L1.50523 7.35279L2.8369 6.62445C3.78856 6.1039 4.5669 5.32556 5.0869 4.37334L5.81578 3.04223Z" fill="#00DAC7"/>
<path fill-rule="evenodd" clip-rule="evenodd" d="M11.7425 9.87549L11.1947 10.8777C11.0125 11.211 10.7375 11.4849 10.4041 11.6677L9.4019 12.2155L10.4041 12.7638C10.7375 12.946 11.0125 13.2205 11.1947 13.5538L11.7425 14.556L12.2902 13.5538C12.473 13.2205 12.7475 12.946 13.0808 12.7638L14.083 12.2155L13.0808 11.6677C12.7475 11.4849 12.473 11.211 12.2902 10.8777L11.7425 9.87549ZM11.7425 11.3694C11.9586 11.7116 12.2463 11.9999 12.5886 12.2155C12.2463 12.4316 11.9586 12.7199 11.7425 13.0616C11.5269 12.7199 11.2386 12.4316 10.8963 12.2155C11.2386 11.9999 11.5269 11.7116 11.7425 11.3694Z" fill="#00DAC7"/>
<path fill-rule="evenodd" clip-rule="evenodd" d="M12.3637 0.000244141L11.5881 1.41747C11.3309 1.88858 10.9426 2.27691 10.4709 2.53469L9.05368 3.31024L10.4709 4.08524C10.9426 4.34302 11.3309 4.73136 11.5881 5.20247L12.3637 6.62024L13.1392 5.20247C13.3965 4.73136 13.7848 4.34302 14.2565 4.08524L15.6737 3.31024L14.2565 2.53469C13.7848 2.27691 13.3965 1.88858 13.1392 1.41747L12.3637 0.000244141ZM12.3637 1.50524L12.5053 1.76413C12.8303 2.35802 13.3159 2.84358 13.9098 3.16858L14.1687 3.31024L13.9098 3.45136C13.3159 3.77636 12.8303 4.26247 12.5053 4.85636L12.3637 5.11469L12.222 4.85636C11.897 4.26247 11.4115 3.77636 10.8176 3.45136L10.5587 3.31024L10.8176 3.16858C11.4115 2.84358 11.897 2.35802 12.222 1.76413L12.3637 1.50524Z" fill="#00DAC7"/>
</svg>
