<svg width="83" height="21" viewBox="0 0 83 21" fill="none" xmlns="http://www.w3.org/2000/svg">
<rect width="83" height="21" fill="#E5E5E5"/>
<g clip-path="url(#clip0_0_1)">
<rect width="1440" height="3621" transform="translate(-206 -3547)" fill="white"/>
<rect x="-206" y="-54" width="1440" height="128" fill="#F9F9F9"/>
<path d="M4.16783 0L7.74406 10.3461L11.293 0H15.4608L9.27633 15.3462H6.18445L0 0H4.16783Z" fill="#A6A6A6"/>
<path fill-rule="evenodd" clip-rule="evenodd" d="M27.6043 6.59006C28.7416 6.59006 29.7166 5.73489 29.7166 4.50646C29.7166 3.27732 28.7416 2.42285 27.6043 2.42285C26.4669 2.42285 25.4919 3.27732 25.4919 4.50646C25.4919 5.73489 26.4669 6.59006 27.6043 6.59006ZM30.3669 9.95612C28.9584 11.7723 27.4687 13.0279 24.8417 13.0279C22.1603 13.0279 20.0754 11.4248 18.4502 9.0738C17.8 8.11277 16.7982 7.89898 16.0667 8.40596C15.3897 8.88716 15.2273 9.9025 15.85 10.7834C18.0979 14.177 21.2121 16.1533 24.8417 16.1533C28.1726 16.1533 30.7728 14.5509 32.804 11.8796C33.5622 10.8907 33.5354 9.87534 32.804 9.31475C32.1269 8.78061 31.1251 8.96725 30.3669 9.95612Z" fill="#A6A6A6"/>
<path fill-rule="evenodd" clip-rule="evenodd" d="M38.7947 2.51881V0.42441H34.9902V21H38.7947V13.682C40.0622 15.3797 41.7081 16.0951 43.5699 16.0951C47.0509 16.0951 50.451 13.391 50.451 7.82186C50.451 2.49254 46.9165 0 43.8941 0C41.4928 0 39.8462 1.08729 38.7947 2.51881ZM42.6794 12.7807C40.6291 12.7807 38.7947 11.1363 38.7947 8.0078C38.7947 4.74662 40.6291 3.28814 42.7069 3.28814C44.6221 3.28814 46.6197 4.82542 46.6197 8.0078C46.6197 11.2427 44.6221 12.7807 42.6794 12.7807Z" fill="#A6A6A6"/>
<path fill-rule="evenodd" clip-rule="evenodd" d="M57.5104 2.51881V0.42441H53.7059V21H57.5104V13.682C58.7786 15.3797 60.4245 16.0951 62.2863 16.0951C65.7666 16.0951 69.1667 13.391 69.1667 7.82186C69.1667 2.49254 65.6322 0 62.6098 0C60.2085 0 58.5626 1.08729 57.5104 2.51881ZM61.3958 12.7807C59.3455 12.7807 57.5104 11.1363 57.5104 8.0078C57.5104 4.74662 59.3455 3.28814 61.4225 3.28814C63.3385 3.28814 65.3354 4.82542 65.3354 8.0078C65.3354 11.2427 63.3385 12.7807 61.3958 12.7807Z" fill="#A6A6A6"/>
<path d="M76.9479 0C79.9231 0 82.1023 1.43675 83 5.05671L79.7433 5.58881C79.6919 3.75247 78.5889 3.19331 77.0247 3.19331C75.7941 3.19331 74.8971 3.75247 74.8971 4.63075C74.8971 5.32241 75.359 6.04113 76.7427 6.30683L79.23 6.78621C81.6665 7.26559 82.9746 8.91531 82.9746 11.1769C82.9746 14.5041 80.0769 16.1538 77.3583 16.1538C74.4866 16.1538 71.3068 14.6103 70.7941 10.8578L74.0508 10.3257C74.23 12.2682 75.3837 12.9598 77.2306 12.9598C78.6411 12.9598 79.5889 12.4284 79.5889 11.4967C79.5889 10.6719 79.1538 10.06 77.615 9.76654L75.359 9.34058C72.9739 8.88895 71.512 7.13239 71.512 4.89645C71.512 1.43675 74.5368 0 76.9479 0Z" fill="#A6A6A6"/>
</g>
<defs>
<clipPath id="clip0_0_1">
<rect width="1440" height="3621" fill="white" transform="translate(-206 -3547)"/>
</clipPath>
</defs>
</svg>
